<?xml version="1.0" encoding="UTF-8" standalone="no"?>
<!DOCTYPE svg PUBLIC "-//W3C//DTD SVG 1.1//EN" "http://www.w3.org/Graphics/SVG/1.1/DTD/svg11.dtd">
<svg xmlns="http://www.w3.org/2000/svg" version="1.1" viewBox="0.00 0.00 2896.00 724.00">
<g stroke-width="2.00" fill="none" stroke-linecap="butt">
<path stroke="#706745" stroke-opacity="0.996" vector-effect="non-scaling-stroke" d="
  M 1960.27 126.32
  Q 1959.27 125.78 1958.23 125.41
  Q 1949.89 122.51 1940.89 119.67
  Q 1931.88 116.83 1923.46 113.40
  Q 1837.76 78.49 1746.70 44.29
  Q 1745.80 43.95 1745.60 44.90
  Q 1742.29 60.40 1739.42 76.36
  C 1738.38 82.14 1737.31 88.88 1737.46 94.95
  C 1739.06 161.79 1808.81 193.83 1863.26 209.64
  Q 1898.79 219.96 1935.38 225.29
  C 1948.15 227.16 1962.38 230.28 1975.00 226.35
  C 1992.07 221.04 1997.27 203.90 1997.01 187.25
  C 1996.94 182.92 1998.66 178.33 2000.87 174.62
  Q 2004.33 168.83 2007.85 162.94
  C 2009.79 159.69 2013.41 151.99 2010.20 149.02
  Q 2005.20 144.40 1996.82 140.58
  Q 1978.91 132.39 1960.73 126.44
  Q 1960.61 126.40 1960.49 126.38
  Q 1960.37 126.37 1960.27 126.32"
/>
<path stroke="#706745" stroke-opacity="0.996" vector-effect="non-scaling-stroke" d="
  M 1950.58 284.03
  C 1943.66 283.30 1936.27 283.05 1929.31 281.70
  A 0.14 0.14 0.0 0 1 1929.30 281.43
  Q 1954.67 274.58 1979.27 266.08
  Q 1996.63 260.07 2011.43 251.70
  C 2016.49 248.84 2022.63 244.23 2024.38 238.20
  A 0.79 0.79 0.0 0 0 2023.61 237.18
  C 2017.47 237.30 2011.69 236.91 2005.52 238.12
  Q 1999.79 239.24 1994.30 239.95
  Q 1972.62 242.75 1928.59 245.24
  Q 1926.54 245.36 1924.85 246.41
  C 1910.80 255.22 1896.15 265.13 1885.61 277.58
  A 1.46 1.46 0.0 0 1 1884.41 278.10
  C 1808.57 274.58 1732.70 271.35 1656.76 266.90
  C 1653.12 266.69 1649.45 265.99 1645.70 266.00
  Q 1560.08 266.36 1470.24 265.17
  Q 1460.06 265.03 1450.26 265.05
  Q 1355.96 265.19 1262.63 265.59
  Q 1260.60 265.59 1261.48 263.76
  Q 1267.93 250.31 1278.87 240.11
  Q 1291.67 228.18 1306.03 219.04
  Q 1318.75 210.94 1331.30 203.13
  C 1341.50 196.78 1352.83 188.17 1360.70 178.64
  C 1364.26 174.35 1369.81 165.36 1366.52 159.76
  Q 1363.86 155.23 1360.28 152.35
  Q 1349.49 143.70 1337.03 136.82
  Q 1316.71 125.60 1298.48 118.05
  Q 1284.93 112.43 1276.61 110.58
  Q 1240.50 102.56 1201.26 96.46
  Q 1171.52 91.83 1143.25 89.61
  Q 1127.81 88.39 1115.05 88.39
  Q 1066.52 88.41 1020.86 96.48
  Q 1003.26 99.59 982.47 105.06
  Q 982.22 105.13 982.07 105.35
  Q 981.98 105.48 982.01 105.63
  Q 982.07 105.95 982.40 105.98
  Q 986.04 106.32 989.48 106.99
  C 1019.96 112.86 1049.93 121.96 1076.34 136.29
  Q 1084.83 140.89 1094.59 147.40
  Q 1099.58 150.73 1103.80 155.20
  Q 1110.31 162.12 1116.15 168.83
  Q 1138.28 194.30 1158.96 219.66
  C 1160.43 221.45 1162.08 222.78 1164.00 224.04
  Q 1174.61 231.02 1186.27 237.74
  Q 1211.04 252.02 1234.34 265.07
  Q 1235.63 265.79 1234.16 266.01
  Q 1078.02 289.42 923.86 312.21
  Q 913.83 313.70 904.15 315.36
  Q 814.37 330.82 735.14 349.90
  Q 660.83 367.80 586.95 392.94
  Q 575.71 396.76 564.76 401.32
  Q 561.00 402.89 557.39 405.03
  Q 556.11 405.79 556.95 407.03
  L 558.86 409.81
  A 1.32 1.32 0.0 0 0 559.96 410.37
  C 563.65 410.31 567.11 410.50 570.84 409.50
  Q 685.89 378.59 802.50 354.19
  Q 939.02 325.64 1075.26 307.84
  C 1182.35 293.85 1289.97 285.31 1397.76 282.80
  Q 1407.87 282.57 1417.75 282.43
  Q 1544.43 280.69 1663.00 282.93
  C 1714.41 283.90 1767.56 286.02 1818.52 289.98
  Q 1828.15 290.73 1838.42 291.97
  Q 1951.17 305.67 2068.48 317.01
  Q 2183.62 328.13 2294.28 337.33
  Q 2297.62 337.61 2300.17 336.87
  Q 2303.26 335.98 2306.20 335.52
  Q 2306.66 335.44 2306.96 335.09
  Q 2307.09 334.93 2307.01 334.74
  Q 2306.80 334.26 2306.29 334.16
  C 2298.94 332.82 2291.83 330.78 2284.46 329.20
  Q 2242.33 320.13 2198.74 313.43
  Q 2147.78 305.60 2096.75 299.48
  Q 2034.36 292.01 1976.24 286.48
  Q 1973.61 286.23 1970.77 285.93
  Q 1965.67 285.41 1960.67 284.99
  Q 1955.75 284.58 1950.58 284.03"
/>
<path stroke="#706745" stroke-opacity="0.996" vector-effect="non-scaling-stroke" d="
  M 2546.37 284.36
  C 2538.74 275.59 2530.07 268.30 2520.43 261.97
  Q 2519.67 261.47 2519.51 260.58
  Q 2515.91 240.33 2506.06 222.60
  C 2492.89 198.92 2476.24 177.29 2455.65 160.62
  C 2435.84 144.57 2412.36 135.12 2386.65 136.38
  A 1.88 1.87 16.3 0 0 2385.20 137.17
  C 2378.05 147.20 2374.35 160.41 2379.84 171.79
  Q 2383.93 180.28 2391.23 188.22
  C 2401.99 199.92 2414.32 209.77 2427.22 219.26
  C 2436.74 226.26 2445.09 234.63 2452.22 243.90
  A 0.25 0.25 0.0 0 1 2452.03 244.30
  C 2439.85 244.59 2406.73 245.64 2404.31 261.96
  C 2404.02 263.89 2405.07 265.25 2406.46 266.37
  C 2417.88 275.63 2431.17 283.32 2443.55 290.44
  Q 2445.86 291.77 2447.44 293.51
  Q 2453.30 299.95 2459.33 306.11
  Q 2469.82 316.83 2483.17 323.23
  Q 2501.25 331.92 2524.16 338.64
  Q 2536.18 342.17 2547.65 345.06
  Q 2574.94 351.96 2598.88 356.33
  A 1.36 1.35 -85.3 0 1 2599.99 357.64
  L 2600.01 358.70
  A 0.91 0.90 13.3 0 0 2600.52 359.51
  Q 2625.95 372.07 2650.04 377.69
  Q 2664.45 381.05 2680.98 380.44
  Q 2705.15 379.53 2721.69 375.33
  C 2737.34 371.35 2752.66 363.04 2754.11 345.80
  Q 2754.53 340.80 2752.62 338.07
  C 2747.07 330.17 2729.90 331.97 2721.87 333.36
  Q 2708.78 335.64 2695.47 339.19
  Q 2678.72 343.65 2662.25 348.10
  Q 2657.08 349.50 2642.36 352.30
  Q 2641.81 352.40 2641.56 351.90
  Q 2638.01 344.57 2631.73 338.39
  A 0.44 0.44 0.0 0 1 2631.95 337.65
  Q 2641.37 335.82 2650.71 332.80
  Q 2659.43 329.99 2666.44 325.30
  A 1.42 1.41 -52.8 0 1 2667.66 325.13
  Q 2676.70 328.15 2687.05 327.50
  Q 2687.71 327.46 2688.01 326.86
  Q 2692.88 317.21 2693.36 307.09
  Q 2694.01 293.31 2689.75 279.71
  Q 2686.25 268.54 2677.96 260.26
  Q 2670.39 252.70 2660.54 245.49
  Q 2626.37 220.46 2589.55 198.83
  C 2581.85 194.30 2573.72 189.90 2565.62 186.40
  Q 2558.24 183.21 2554.76 182.46
  C 2545.81 180.53 2533.98 182.45 2527.94 190.27
  C 2522.67 197.10 2522.17 208.27 2524.13 216.25
  C 2527.59 230.34 2538.65 240.03 2551.34 247.32
  Q 2556.97 250.55 2562.99 253.50
  A 0.80 0.80 0.0 0 1 2563.29 254.67
  C 2556.93 263.97 2552.01 274.01 2547.28 284.23
  A 0.55 0.55 0.0 0 1 2546.37 284.36"
/>
<path stroke="#706745" stroke-opacity="0.996" vector-effect="non-scaling-stroke" d="
  M 2572.97 302.09
  L 2590.00 310.59
  A 1.83 1.83 0.0 0 0 2591.99 310.37
  C 2602.27 302.01 2612.68 295.21 2625.29 290.90
  A 0.54 0.54 0.0 0 0 2625.53 290.04
  C 2623.14 287.16 2620.72 283.42 2617.35 281.69
  Q 2610.83 278.35 2604.75 275.11
  A 1.16 1.15 -54.9 0 0 2603.34 275.36
  C 2594.80 285.11 2583.93 293.74 2572.91 301.25
  A 0.49 0.49 0.0 0 0 2572.97 302.09"
/>
<path stroke="#706745" stroke-opacity="0.996" vector-effect="non-scaling-stroke" d="
  M 340.38 375.03
  C 336.34 391.63 320.57 402.40 305.09 408.38
  Q 303.37 409.04 305.14 409.55
  Q 316.80 412.87 329.39 413.68
  Q 336.82 414.15 349.90 413.93
  Q 374.62 413.52 400.08 410.29
  C 451.01 403.82 500.26 390.09 548.23 371.31
  C 576.04 360.43 638.95 332.88 635.01 295.28
  Q 633.03 276.39 629.93 255.72
  C 629.68 254.03 628.81 252.91 628.84 251.11
  C 629.34 222.36 642.14 199.86 670.97 192.78
  Q 672.22 192.48 671.08 191.89
  Q 668.50 190.58 665.62 189.20
  Q 663.95 188.41 661.60 188.69
  Q 637.57 191.57 614.06 196.44
  Q 562.15 207.19 513.23 221.46
  Q 471.40 233.66 434.68 248.77
  Q 407.28 260.05 386.45 273.94
  C 358.01 292.89 343.40 321.72 341.57 356.15
  C 341.23 362.44 341.87 368.91 340.38 375.03"
/>
<path stroke="#706745" stroke-opacity="0.996" vector-effect="non-scaling-stroke" d="
  M 1827.16 349.21
  Q 1825.17 348.28 1823.30 347.38
  Q 1763.52 318.64 1696.92 311.76
  Q 1677.51 309.76 1663.46 309.07
  Q 1654.13 308.62 1644.00 307.83
  Q 1611.78 305.33 1576.38 302.11
  Q 1571.13 301.63 1565.14 300.76
  C 1562.90 300.44 1560.79 301.18 1558.67 301.73
  A 0.62 0.61 -26.5 0 0 1558.34 302.70
  Q 1569.14 316.24 1582.87 326.77
  C 1604.27 343.17 1628.36 355.40 1654.97 366.41
  Q 1670.60 372.87 1686.30 378.32
  Q 1726.09 392.13 1767.80 402.65
  C 1826.77 417.51 1886.29 428.92 1946.37 438.31
  C 1951.25 439.08 1953.35 439.74 1957.02 438.12
  A 0.38 0.38 0.0 0 0 1957.12 437.48
  Q 1931.63 415.45 1904.35 395.74
  Q 1873.99 373.80 1839.12 355.20
  Q 1833.06 351.97 1827.16 349.21"
/>
<path stroke="#706745" stroke-opacity="0.996" vector-effect="non-scaling-stroke" d="
  M 1461.21 383.02
  C 1460.55 382.80 1459.88 382.36 1459.18 382.13
  Q 1417.43 368.05 1368.71 354.88
  Q 1329.92 344.39 1291.46 337.65
  Q 1274.82 334.74 1256.17 333.62
  Q 1246.44 333.04 1237.29 333.58
  C 1232.02 333.89 1224.88 334.88 1220.52 338.27
  C 1217.50 340.62 1217.22 344.74 1219.11 347.82
  C 1222.64 353.57 1230.50 357.80 1236.47 360.42
  Q 1254.00 368.08 1276.33 373.80
  Q 1302.59 380.52 1309.45 381.58
  Q 1392.38 394.46 1440.24 403.25
  Q 1476.31 409.88 1513.78 422.45
  Q 1526.78 426.82 1537.23 430.53
  Q 1537.72 430.71 1538.18 430.48
  L 1542.44 428.40
  Q 1543.61 427.83 1542.99 426.68
  Q 1539.34 419.94 1531.69 414.69
  Q 1522.60 408.43 1513.08 403.86
  Q 1487.80 391.72 1461.21 383.02"
/>
<path stroke="#706745" stroke-opacity="0.996" vector-effect="non-scaling-stroke" d="
  M 1949.85 476.26
  Q 1919.52 484.68 1891.07 493.36
  Q 1881.60 496.25 1876.32 499.28
  C 1855.32 511.30 1840.93 531.58 1831.27 553.44
  Q 1828.17 560.44 1824.59 565.65
  C 1806.59 591.75 1771.05 604.92 1740.75 610.63
  A 1.18 1.18 0.0 0 0 1739.84 611.44
  Q 1739.68 611.99 1739.79 612.55
  Q 1739.93 613.21 1740.61 613.21
  Q 1783.23 612.77 1826.01 612.19
  Q 1841.24 611.98 1856.76 609.97
  Q 1881.71 606.75 1907.09 600.26
  Q 1943.08 591.06 1972.67 583.96
  Q 1975.24 583.35 1978.50 582.90
  Q 2004.46 579.32 2040.77 575.73
  Q 2072.10 572.63 2102.19 561.64
  C 2112.55 557.85 2122.62 552.89 2131.70 546.92
  Q 2172.33 520.18 2173.21 471.06
  C 2173.43 458.62 2169.31 446.61 2163.63 435.70
  Q 2154.58 418.32 2140.60 400.27
  C 2129.48 385.92 2117.50 373.23 2102.66 362.51
  Q 2087.92 351.87 2070.15 345.79
  C 2067.26 344.80 2065.44 345.99 2065.32 348.91
  Q 2065.30 349.50 2065.70 349.94
  Q 2067.75 352.14 2069.64 353.92
  Q 2080.22 363.87 2091.18 373.97
  Q 2099.54 381.66 2104.48 390.68
  C 2120.73 420.38 2068.97 440.61 2050.00 447.18
  C 2043.12 449.57 2036.49 451.84 2029.43 453.85
  C 2002.96 461.35 1976.44 468.89 1949.85 476.26"
/>
<path stroke="#706745" stroke-opacity="0.996" vector-effect="non-scaling-stroke" d="
  M 2614.23 444.40
  C 2621.97 442.19 2630.69 438.72 2636.52 433.17
  C 2645.46 424.66 2641.50 414.53 2634.02 407.14
  Q 2626.89 400.10 2616.65 393.90
  Q 2608.09 388.71 2598.47 384.09
  Q 2573.52 372.12 2547.34 363.18
  Q 2529.14 356.98 2510.25 353.46
  C 2490.33 349.76 2470.22 350.14 2451.06 355.95
  Q 2449.65 356.38 2448.12 356.00
  Q 2427.04 350.87 2404.51 347.66
  Q 2394.55 346.25 2384.84 346.19
  C 2375.87 346.13 2334.34 346.51 2333.86 358.97
  Q 2333.60 365.82 2334.19 372.30
  C 2335.32 384.66 2351.36 392.76 2361.48 396.33
  Q 2378.70 402.41 2398.67 405.42
  A 1.28 1.28 0.0 0 1 2399.74 406.48
  Q 2402.64 424.70 2414.03 438.12
  A 0.34 0.33 67.8 0 1 2413.80 438.67
  C 2401.92 439.70 2390.25 439.98 2377.59 440.28
  Q 2373.37 440.39 2368.21 441.00
  C 2357.69 442.24 2334.76 445.32 2334.91 460.55
  C 2335.05 474.69 2371.43 488.17 2382.39 491.31
  C 2394.63 494.82 2405.54 495.09 2418.21 494.46
  Q 2456.92 492.54 2493.26 484.46
  Q 2554.30 470.90 2612.05 446.46
  Q 2613.01 446.05 2613.44 445.08
  Q 2613.67 444.55 2614.23 444.40"
/>
<path stroke="#706745" stroke-opacity="0.996" vector-effect="non-scaling-stroke" d="
  M 2586.91 484.22
  Q 2571.04 487.60 2556.15 490.92
  Q 2550.88 492.09 2545.87 494.14
  Q 2544.63 494.64 2543.37 494.19
  Q 2526.99 488.31 2509.95 483.16
  Q 2509.29 482.96 2509.12 483.63
  C 2508.17 487.22 2511.19 492.41 2513.35 495.51
  Q 2515.97 499.28 2518.92 502.90
  A 0.90 0.89 58.6 0 1 2518.59 504.29
  C 2511.77 507.29 2504.98 510.24 2498.67 513.88
  Q 2488.20 519.93 2476.80 526.14
  Q 2475.62 526.79 2475.18 525.52
  Q 2470.14 511.03 2458.16 499.70
  A 0.91 0.89 56.4 0 0 2457.23 499.50
  C 2445.11 503.81 2437.15 515.39 2431.57 526.90
  Q 2425.93 538.54 2422.56 549.85
  A 2.05 2.03 -4.5 0 1 2421.47 551.11
  Q 2414.02 554.59 2407.36 558.65
  Q 2404.73 560.25 2402.68 562.22
  Q 2401.09 563.75 2401.78 566.63
  C 2403.35 573.20 2408.08 575.82 2413.92 578.21
  Q 2414.57 578.48 2414.36 579.15
  L 2406.94 603.07
  A 4.90 4.84 71.2 0 1 2406.30 604.39
  L 2385.68 633.94
  A 1.96 1.95 -48.2 0 0 2385.81 636.35
  C 2388.40 639.30 2394.87 639.68 2398.56 639.78
  C 2414.06 640.21 2430.09 637.73 2443.26 630.15
  C 2463.09 618.75 2473.44 597.18 2476.53 574.96
  A 1.47 1.45 -4.5 0 1 2477.56 573.77
  Q 2500.08 567.07 2522.56 556.70
  Q 2523.26 556.38 2524.06 556.21
  Q 2524.72 556.07 2524.61 556.73
  Q 2523.51 563.39 2522.03 570.80
  C 2520.51 578.33 2521.21 584.03 2525.19 590.27
  Q 2537.19 609.09 2559.00 610.18
  Q 2561.25 610.29 2563.50 610.43
  A 0.50 0.50 0.0 0 1 2563.93 611.14
  Q 2562.88 613.46 2563.61 615.93
  Q 2565.51 622.36 2568.94 628.54
  A 1.22 1.21 76.8 0 0 2569.95 629.17
  Q 2574.79 629.42 2579.95 628.75
  C 2604.77 625.51 2624.62 610.08 2639.80 590.69
  C 2653.52 573.15 2664.04 553.67 2673.07 533.18
  Q 2673.47 532.27 2674.43 532.51
  C 2682.82 534.56 2690.95 534.58 2699.42 533.77
  C 2716.05 532.18 2736.49 527.06 2737.91 507.07
  C 2738.32 501.28 2736.24 496.32 2732.23 492.25
  Q 2727.11 487.06 2723.39 484.83
  Q 2701.03 471.48 2675.65 466.93
  Q 2667.07 465.39 2655.76 465.14
  Q 2631.75 464.61 2606.55 467.47
  Q 2596.65 468.59 2588.25 471.84
  Q 2585.24 473.00 2583.77 475.61
  C 2582.38 478.06 2585.62 481.70 2587.14 483.56
  Q 2587.57 484.08 2586.91 484.22"
/>
<path stroke="#706745" stroke-opacity="0.996" vector-effect="non-scaling-stroke" d="
  M 640.73 500.34
  Q 667.25 501.85 693.76 503.65
  Q 711.32 504.85 727.75 505.60
  C 737.64 506.06 747.08 506.66 757.09 506.30
  Q 771.53 505.78 775.75 505.53
  C 817.00 503.11 859.07 494.39 895.67 477.29
  Q 904.70 473.07 914.60 467.89
  Q 953.75 447.41 993.24 428.99
  Q 1008.26 421.98 1023.68 415.94
  Q 1026.65 414.78 1029.73 413.98
  Q 1032.97 413.14 1029.67 412.57
  Q 1004.15 408.16 980.97 404.68
  C 944.62 399.21 910.87 395.37 875.56 394.53
  Q 841.56 393.73 805.25 403.36
  C 775.31 411.31 746.71 422.73 718.37 436.56
  Q 669.55 460.39 623.72 490.44
  A 2.14 2.12 40.9 0 1 621.63 490.58
  Q 610.56 485.27 597.48 480.39
  Q 578.39 473.26 557.96 467.50
  Q 535.13 461.06 514.01 456.51
  Q 411.81 434.51 311.43 429.69
  Q 291.82 428.75 269.74 428.86
  Q 236.05 429.01 204.25 430.75
  Q 178.28 432.17 154.60 435.36
  Q 137.00 437.74 121.40 442.09
  Q 112.71 444.51 104.56 448.55
  A 0.59 0.59 0.0 0 0 104.59 449.63
  C 106.91 450.59 108.94 451.72 111.55 451.95
  Q 123.87 453.05 135.81 452.82
  Q 155.36 452.46 170.65 451.57
  Q 202.15 449.73 233.58 447.91
  Q 250.05 446.96 269.95 446.96
  C 342.97 446.97 415.81 454.40 486.71 472.65
  Q 512.40 479.27 522.62 483.14
  Q 603.93 513.96 693.06 549.33
  Q 702.21 552.96 711.88 556.18
  Q 802.77 586.40 898.43 588.14
  Q 944.34 588.98 991.88 585.11
  Q 1019.28 582.89 1043.80 578.34
  Q 1054.44 576.37 1065.09 573.55
  C 1081.67 569.16 1098.05 562.92 1111.08 552.16
  A 0.69 0.69 0.0 0 0 1110.82 550.96
  C 1106.04 549.67 1101.83 548.81 1096.70 549.01
  Q 1081.29 549.62 1065.01 551.70
  Q 1034.58 555.61 1002.21 561.18
  Q 973.12 566.19 945.91 568.60
  C 923.90 570.54 902.91 570.22 878.45 568.90
  Q 796.50 564.48 723.65 539.09
  Q 714.01 535.73 704.94 532.13
  Q 671.57 518.88 640.54 500.98
  Q 639.30 500.26 640.73 500.34"
/>
<path stroke="#706745" stroke-opacity="0.996" vector-effect="non-scaling-stroke" d="
  M 2761.04 425.29
  C 2760.91 409.68 2751.32 400.33 2736.59 397.29
  Q 2720.22 393.91 2701.88 396.50
  C 2694.56 397.53 2683.87 400.67 2686.70 410.53
  C 2687.33 412.72 2688.77 414.90 2689.88 416.90
  A 1.26 1.26 0.0 0 1 2689.90 418.09
  L 2681.89 434.08
  A 2.37 2.36 48.6 0 0 2681.78 435.91
  L 2684.21 442.83
  A 0.97 0.96 81.1 0 0 2685.09 443.48
  Q 2694.52 443.81 2705.20 444.88
  C 2713.77 445.74 2722.09 445.90 2730.50 445.66
  C 2743.09 445.30 2761.19 441.66 2761.04 425.29"
/>
<path stroke="#706745" stroke-opacity="0.996" vector-effect="non-scaling-stroke" d="
  M 1461.77 443.77
  Q 1444.18 436.34 1424.17 430.30
  Q 1385.51 418.62 1346.81 412.93
  Q 1273.89 402.22 1196.65 406.53
  Q 1186.45 407.10 1175.47 408.76
  Q 1167.84 409.91 1160.80 412.00
  C 1156.55 413.27 1146.12 418.02 1151.78 424.15
  C 1154.99 427.63 1160.33 429.93 1164.71 431.42
  Q 1177.04 435.64 1190.98 438.33
  Q 1217.47 443.43 1247.51 446.84
  Q 1282.32 450.78 1303.00 452.20
  Q 1361.11 456.19 1494.83 464.60
  C 1496.15 464.69 1497.33 464.50 1498.37 463.64
  A 1.91 1.91 0.0 0 0 1498.04 460.48
  Q 1481.75 451.95 1462.70 443.99
  Q 1462.44 443.88 1462.17 443.86
  Q 1461.96 443.85 1461.77 443.77"
/>
<path stroke="#706745" stroke-opacity="0.996" vector-effect="non-scaling-stroke" d="
  M 1690.17 443.60
  A 0.05 0.03 -13.3 0 0 1690.14 443.59
  Q 1666.99 438.95 1642.50 437.69
  C 1631.66 437.14 1619.73 437.92 1608.64 438.68
  Q 1597.93 439.41 1585.57 441.83
  C 1565.27 445.80 1538.85 455.36 1541.82 481.19
  C 1542.69 488.78 1546.60 496.64 1550.98 502.82
  Q 1559.85 515.34 1571.90 525.78
  Q 1593.98 544.92 1623.23 542.48
  C 1645.18 540.66 1666.30 533.45 1686.52 522.80
  Q 1706.08 512.51 1721.44 501.15
  C 1731.16 493.96 1744.99 482.48 1746.49 469.76
  C 1747.41 461.98 1738.25 457.39 1732.46 454.75
  Q 1728.09 452.77 1724.29 451.63
  Q 1705.73 446.07 1690.17 443.60"
/>
<path stroke="#706745" stroke-opacity="0.996" vector-effect="non-scaling-stroke" d="
  M 2615.82 531.77
  A 1.30 1.29 -9.1 0 1 2616.33 531.07
  L 2635.69 517.39
  A 0.49 0.49 0.0 0 0 2635.64 516.56
  Q 2625.21 511.03 2615.96 504.89
  A 1.28 1.27 45.2 0 0 2614.54 504.88
  L 2595.99 517.06
  Q 2594.36 518.13 2596.04 519.13
  Q 2605.95 525.01 2614.65 532.65
  Q 2615.06 533.01 2615.40 532.59
  Q 2615.69 532.23 2615.82 531.77"
/>
<path stroke="#706745" stroke-opacity="0.996" vector-effect="non-scaling-stroke" d="
  M 412.15 483.63
  Q 411.97 483.51 411.76 483.45
  Q 387.96 476.99 366.73 471.99
  Q 365.48 471.69 364.31 472.16
  Q 361.60 473.26 358.63 474.05
  A 1.13 1.13 0.0 0 0 357.97 475.76
  C 358.96 477.26 360.41 479.35 360.21 481.16
  Q 359.17 490.94 358.01 498.99
  Q 357.18 504.66 357.91 509.26
  C 361.92 534.55 384.74 551.37 405.36 563.56
  Q 448.46 589.02 491.70 614.15
  A 7.04 7.02 -4.0 0 1 493.72 615.90
  Q 514.52 642.34 534.41 669.11
  Q 535.02 669.93 536.01 669.69
  C 559.78 663.98 589.01 652.94 600.32 629.29
  C 609.43 610.25 606.49 590.04 594.14 573.25
  C 583.31 558.54 567.46 546.82 551.60 537.54
  Q 530.26 525.07 506.57 515.34
  Q 462.21 497.14 412.74 483.89
  Q 412.42 483.81 412.15 483.63"
/>
<path stroke="#706745" stroke-opacity="0.996" vector-effect="non-scaling-stroke" d="
  M 1445.58 482.82
  Q 1442.63 482.29 1438.41 481.48
  Q 1418.72 477.68 1393.87 475.45
  Q 1368.53 473.17 1347.41 472.53
  Q 1291.87 470.85 1235.93 473.75
  Q 1215.69 474.80 1194.41 476.89
  Q 1170.36 479.25 1150.22 484.34
  C 1140.75 486.73 1118.41 493.27 1121.45 507.23
  C 1123.24 515.40 1130.86 520.58 1138.44 523.44
  C 1151.72 528.44 1166.41 530.44 1180.83 531.38
  Q 1212.88 533.48 1246.45 531.10
  Q 1273.61 529.17 1296.50 526.36
  Q 1330.68 522.17 1372.37 515.62
  Q 1381.51 514.19 1392.15 512.66
  Q 1414.48 509.44 1438.02 506.14
  Q 1463.04 502.63 1485.26 499.97
  Q 1491.38 499.24 1496.68 498.91
  Q 1498.99 498.77 1496.85 497.90
  Q 1471.04 487.41 1445.58 482.82"
/>
<path stroke="#706745" stroke-opacity="0.996" vector-effect="non-scaling-stroke" d="
  M 1440.36 566.03
  C 1441.06 565.83 1441.76 565.91 1442.48 565.73
  Q 1449.39 563.92 1457.16 561.75
  Q 1471.31 557.80 1484.11 552.48
  C 1492.77 548.89 1507.06 542.05 1508.61 532.04
  Q 1508.70 531.43 1508.31 530.95
  C 1507.35 529.80 1506.23 528.45 1504.61 528.46
  Q 1469.57 528.66 1428.71 530.49
  Q 1382.77 532.54 1338.88 539.03
  C 1323.61 541.29 1309.21 544.39 1294.35 548.40
  Q 1268.52 555.37 1240.24 565.35
  Q 1227.41 569.87 1215.08 575.27
  Q 1201.45 581.25 1192.92 588.01
  C 1188.30 591.67 1186.63 596.07 1188.93 601.49
  C 1191.13 606.68 1196.21 609.93 1201.40 611.39
  Q 1212.21 614.44 1224.09 614.29
  Q 1231.61 614.20 1243.26 611.52
  Q 1270.30 605.32 1298.22 597.52
  Q 1308.00 594.79 1317.78 592.73
  Q 1355.04 584.90 1422.99 570.25
  Q 1433.92 567.89 1440.36 566.03"
/>
<path stroke="#706745" stroke-opacity="0.996" vector-effect="non-scaling-stroke" d="
  M 1534.69 617.39
  Q 1534.61 617.41 1534.53 617.45
  Q 1519.80 624.85 1503.85 632.81
  Q 1474.43 647.50 1449.15 662.41
  Q 1437.37 669.36 1426.16 677.61
  C 1421.74 680.86 1415.32 685.88 1413.22 690.99
  C 1409.19 700.82 1430.64 700.05 1435.15 699.99
  C 1477.90 699.46 1520.49 688.29 1552.27 658.57
  C 1566.05 645.69 1578.34 631.47 1586.26 614.53
  Q 1595.39 594.98 1595.44 573.59
  Q 1595.44 572.78 1594.81 572.27
  L 1587.45 566.33
  A 0.82 0.81 40.8 0 0 1586.33 566.41
  Q 1565.33 589.22 1541.10 613.45
  C 1539.23 615.32 1537.13 615.90 1535.01 617.26
  Q 1534.86 617.36 1534.69 617.39"
/>
<path stroke="#706745" stroke-opacity="0.996" vector-effect="non-scaling-stroke" d="
  M 1306.94 626.52
  C 1292.05 631.61 1276.32 637.32 1263.40 644.55
  Q 1259.42 646.77 1256.31 649.69
  C 1252.07 653.69 1254.54 659.37 1258.84 662.03
  Q 1262.91 664.55 1267.37 665.55
  Q 1276.56 667.63 1286.56 667.82
  Q 1293.20 667.94 1301.15 666.23
  C 1334.61 659.05 1366.99 649.18 1398.44 637.93
  Q 1407.75 634.59 1417.41 631.65
  Q 1451.48 621.27 1486.00 611.06
  Q 1497.20 607.74 1504.51 604.45
  C 1519.77 597.59 1539.36 587.34 1541.86 569.10
  Q 1542.05 567.69 1540.67 567.32
  C 1538.21 566.67 1536.18 566.20 1533.56 566.63
  Q 1518.84 569.01 1506.25 571.78
  Q 1470.79 579.57 1432.64 589.77
  Q 1390.28 601.08 1348.87 613.19
  Q 1328.69 619.09 1306.94 626.52"
/>
</g>
<path fill="#030303" fill-opacity="0.992" d="
  M 1963.55 229.00
  Q 1962.65 229.05 1961.77 229.01
  Q 1953.41 228.64 1944.35 227.34
  Q 1923.96 224.41 1904.79 220.61
  Q 1879.72 215.63 1853.21 207.23
  Q 1822.05 197.35 1797.35 183.26
  Q 1779.70 173.19 1765.69 159.56
  C 1746.77 141.13 1736.15 116.77 1736.78 90.80
  Q 1736.85 87.68 1738.71 76.77
  Q 1741.55 60.09 1745.00 43.72
  Q 1745.17 42.91 1745.95 43.20
  Q 1835.82 76.85 1923.38 112.54
  Q 1932.52 116.26 1941.96 119.25
  Q 1963.07 125.95 1983.15 133.80
  Q 1994.74 138.34 2004.26 143.69
  C 2007.49 145.51 2012.98 148.97 2012.18 153.40
  Q 2011.24 158.61 2008.67 162.93
  Q 2005.11 168.91 2001.14 175.49
  C 1999.16 178.78 1997.68 182.93 1997.70 186.85
  C 1997.81 201.11 1994.46 217.04 1981.17 224.47
  Q 1974.04 228.45 1963.55 229.00
  Z
  M 1960.27 126.32
  Q 1959.27 125.78 1958.23 125.41
  Q 1949.89 122.51 1940.89 119.67
  Q 1931.88 116.83 1923.46 113.40
  Q 1837.76 78.49 1746.70 44.29
  Q 1745.80 43.95 1745.60 44.90
  Q 1742.29 60.40 1739.42 76.36
  C 1738.38 82.14 1737.31 88.88 1737.46 94.95
  C 1739.06 161.79 1808.81 193.83 1863.26 209.64
  Q 1898.79 219.96 1935.38 225.29
  C 1948.15 227.16 1962.38 230.28 1975.00 226.35
  C 1992.07 221.04 1997.27 203.90 1997.01 187.25
  C 1996.94 182.92 1998.66 178.33 2000.87 174.62
  Q 2004.33 168.83 2007.85 162.94
  C 2009.79 159.69 2013.41 151.99 2010.20 149.02
  Q 2005.20 144.40 1996.82 140.58
  Q 1978.91 132.39 1960.73 126.44
  Q 1960.61 126.40 1960.49 126.38
  Q 1960.37 126.37 1960.27 126.32
  Z"
/>
<path fill="#dcca87" d="
  M 1960.49 126.38
  Q 1960.61 126.40 1960.73 126.44
  Q 1978.91 132.39 1996.82 140.58
  Q 2005.20 144.40 2010.20 149.02
  C 2013.41 151.99 2009.79 159.69 2007.85 162.94
  Q 2004.33 168.83 2000.87 174.62
  C 1998.66 178.33 1996.94 182.92 1997.01 187.25
  C 1997.27 203.90 1992.07 221.04 1975.00 226.35
  C 1962.38 230.28 1948.15 227.16 1935.38 225.29
  Q 1898.79 219.96 1863.26 209.64
  C 1808.81 193.83 1739.06 161.79 1737.46 94.95
  C 1737.31 88.88 1738.38 82.14 1739.42 76.36
  Q 1742.29 60.40 1745.60 44.90
  Q 1745.80 43.95 1746.70 44.29
  Q 1837.76 78.49 1923.46 113.40
  Q 1931.88 116.83 1940.89 119.67
  Q 1949.89 122.51 1958.23 125.41
  Q 1959.27 125.78 1960.27 126.32
  Q 1960.37 126.37 1960.49 126.38
  Z"
/>
<path fill="#030303" fill-opacity="0.992" d="
  M 1262.15 264.21
  A 0.51 0.50 -79.2 0 0 1262.62 264.91
  Q 1353.51 264.46 1446.79 264.37
  Q 1456.59 264.36 1466.75 264.47
  C 1527.79 265.16 1589.36 265.94 1650.65 265.15
  C 1651.78 265.14 1652.26 265.90 1653.27 265.96
  Q 1681.58 267.78 1709.33 269.15
  Q 1796.69 273.46 1884.29 277.39
  A 0.98 0.97 -68.2 0 0 1885.07 277.05
  C 1896.27 264.42 1910.35 254.51 1924.83 245.65
  Q 1926.48 244.63 1928.40 244.54
  Q 1963.69 242.80 1992.81 239.44
  Q 1998.67 238.77 2004.90 237.58
  Q 2010.20 236.56 2014.61 236.56
  Q 2019.45 236.56 2024.55 236.51
  A 0.63 0.62 -85.1 0 1 2025.17 237.25
  Q 2024.16 242.74 2019.89 246.41
  C 2011.66 253.49 2000.78 258.49 1990.72 262.42
  Q 1963.91 272.88 1933.28 280.99
  Q 1932.69 281.14 1933.08 281.61
  Q 1933.23 281.78 1933.45 281.80
  Q 2039.85 291.19 2139.97 304.32
  Q 2179.59 309.52 2221.20 316.38
  Q 2266.74 323.89 2308.93 334.35
  Q 2310.92 334.84 2308.93 335.31
  Q 2305.06 336.20 2300.65 337.48
  Q 2298.09 338.23 2295.33 338.00
  Q 2129.92 324.41 1971.99 307.87
  Q 1909.69 301.35 1839.43 292.75
  Q 1829.28 291.51 1819.53 290.73
  C 1751.56 285.36 1681.02 283.48 1614.00 282.78
  Q 1513.12 281.72 1413.74 283.15
  Q 1402.87 283.31 1393.75 283.53
  C 1225.12 287.61 1053.78 307.14 886.20 338.38
  C 780.29 358.12 674.89 382.41 570.11 410.36
  C 566.59 411.30 563.07 410.98 559.50 411.04
  Q 558.89 411.05 558.55 410.54
  L 556.16 406.99
  A 1.47 1.47 0.0 0 1 556.55 404.96
  Q 561.15 401.83 566.12 399.88
  Q 579.89 394.47 597.21 388.71
  C 675.26 362.75 753.17 343.49 835.00 327.44
  Q 870.27 320.52 905.40 314.47
  Q 915.25 312.78 925.14 311.32
  Q 1084.62 287.78 1231.84 265.67
  Q 1233.76 265.38 1232.06 264.46
  Q 1197.18 245.39 1165.95 226.28
  Q 1163.91 225.03 1161.45 222.98
  Q 1159.37 221.25 1157.67 219.18
  Q 1140.08 197.62 1121.05 175.46
  Q 1112.87 165.93 1103.49 155.88
  Q 1099.39 151.48 1094.55 148.18
  C 1060.77 125.14 1020.34 112.72 980.00 106.01
  Q 978.18 105.71 979.96 105.20
  Q 998.56 99.82 1018.13 96.31
  Q 1072.34 86.59 1124.64 87.98
  Q 1152.85 88.72 1188.50 93.90
  Q 1238.87 101.22 1276.34 109.80
  Q 1288.76 112.64 1305.54 120.14
  Q 1329.80 130.97 1351.12 144.64
  Q 1357.09 148.46 1362.71 153.75
  C 1366.51 157.32 1369.17 161.41 1367.83 166.66
  C 1365.35 176.29 1357.11 184.44 1349.36 190.80
  C 1336.57 201.31 1322.83 209.18 1309.22 217.76
  Q 1289.86 229.97 1276.08 243.95
  Q 1266.67 253.51 1262.15 264.21
  Z
  M 1950.58 284.03
  C 1943.66 283.30 1936.27 283.05 1929.31 281.70
  A 0.14 0.14 0.0 0 1 1929.30 281.43
  Q 1954.67 274.58 1979.27 266.08
  Q 1996.63 260.07 2011.43 251.70
  C 2016.49 248.84 2022.63 244.23 2024.38 238.20
  A 0.79 0.79 0.0 0 0 2023.61 237.18
  C 2017.47 237.30 2011.69 236.91 2005.52 238.12
  Q 1999.79 239.24 1994.30 239.95
  Q 1972.62 242.75 1928.59 245.24
  Q 1926.54 245.36 1924.85 246.41
  C 1910.80 255.22 1896.15 265.13 1885.61 277.58
  A 1.46 1.46 0.0 0 1 1884.41 278.10
  C 1808.57 274.58 1732.70 271.35 1656.76 266.90
  C 1653.12 266.69 1649.45 265.99 1645.70 266.00
  Q 1560.08 266.36 1470.24 265.17
  Q 1460.06 265.03 1450.26 265.05
  Q 1355.96 265.19 1262.63 265.59
  Q 1260.60 265.59 1261.48 263.76
  Q 1267.93 250.31 1278.87 240.11
  Q 1291.67 228.18 1306.03 219.04
  Q 1318.75 210.94 1331.30 203.13
  C 1341.50 196.78 1352.83 188.17 1360.70 178.64
  C 1364.26 174.35 1369.81 165.36 1366.52 159.76
  Q 1363.86 155.23 1360.28 152.35
  Q 1349.49 143.70 1337.03 136.82
  Q 1316.71 125.60 1298.48 118.05
  Q 1284.93 112.43 1276.61 110.58
  Q 1240.50 102.56 1201.26 96.46
  Q 1171.52 91.83 1143.25 89.61
  Q 1127.81 88.39 1115.05 88.39
  Q 1066.52 88.41 1020.86 96.48
  Q 1003.26 99.59 982.47 105.06
  Q 982.22 105.13 982.07 105.35
  Q 981.98 105.48 982.01 105.63
  Q 982.07 105.95 982.40 105.98
  Q 986.04 106.32 989.48 106.99
  C 1019.96 112.86 1049.93 121.96 1076.34 136.29
  Q 1084.83 140.89 1094.59 147.40
  Q 1099.58 150.73 1103.80 155.20
  Q 1110.31 162.12 1116.15 168.83
  Q 1138.28 194.30 1158.96 219.66
  C 1160.43 221.45 1162.08 222.78 1164.00 224.04
  Q 1174.61 231.02 1186.27 237.74
  Q 1211.04 252.02 1234.34 265.07
  Q 1235.63 265.79 1234.16 266.01
  Q 1078.02 289.42 923.86 312.21
  Q 913.83 313.70 904.15 315.36
  Q 814.37 330.82 735.14 349.90
  Q 660.83 367.80 586.95 392.94
  Q 575.71 396.76 564.76 401.32
  Q 561.00 402.89 557.39 405.03
  Q 556.11 405.79 556.95 407.03
  L 558.86 409.81
  A 1.32 1.32 0.0 0 0 559.96 410.37
  C 563.65 410.31 567.11 410.50 570.84 409.50
  Q 685.89 378.59 802.50 354.19
  Q 939.02 325.64 1075.26 307.84
  C 1182.35 293.85 1289.97 285.31 1397.76 282.80
  Q 1407.87 282.57 1417.75 282.43
  Q 1544.43 280.69 1663.00 282.93
  C 1714.41 283.90 1767.56 286.02 1818.52 289.98
  Q 1828.15 290.73 1838.42 291.97
  Q 1951.17 305.67 2068.48 317.01
  Q 2183.62 328.13 2294.28 337.33
  Q 2297.62 337.61 2300.17 336.87
  Q 2303.26 335.98 2306.20 335.52
  Q 2306.66 335.44 2306.96 335.09
  Q 2307.09 334.93 2307.01 334.74
  Q 2306.80 334.26 2306.29 334.16
  C 2298.94 332.82 2291.83 330.78 2284.46 329.20
  Q 2242.33 320.13 2198.74 313.43
  Q 2147.78 305.60 2096.75 299.48
  Q 2034.36 292.01 1976.24 286.48
  Q 1973.61 286.23 1970.77 285.93
  Q 1965.67 285.41 1960.67 284.99
  Q 1955.75 284.58 1950.58 284.03
  Z"
/>
<path fill="#dcca87" d="
  M 1960.67 284.99
  Q 1965.67 285.41 1970.77 285.93
  Q 1973.61 286.23 1976.24 286.48
  Q 2034.36 292.01 2096.75 299.48
  Q 2147.78 305.60 2198.74 313.43
  Q 2242.33 320.13 2284.46 329.20
  C 2291.83 330.78 2298.94 332.82 2306.29 334.16
  Q 2306.80 334.26 2307.01 334.74
  Q 2307.09 334.93 2306.96 335.09
  Q 2306.66 335.44 2306.20 335.52
  Q 2303.26 335.98 2300.17 336.87
  Q 2297.62 337.61 2294.28 337.33
  Q 2183.62 328.13 2068.48 317.01
  Q 1951.17 305.67 1838.42 291.97
  Q 1828.15 290.73 1818.52 289.98
  C 1767.56 286.02 1714.41 283.90 1663.00 282.93
  Q 1544.43 280.69 1417.75 282.43
  Q 1407.87 282.57 1397.76 282.80
  C 1289.97 285.31 1182.35 293.85 1075.26 307.84
  Q 939.02 325.64 802.50 354.19
  Q 685.89 378.59 570.84 409.50
  C 567.11 410.50 563.65 410.31 559.96 410.37
  A 1.32 1.32 0.0 0 1 558.86 409.81
  L 556.95 407.03
  Q 556.11 405.79 557.39 405.03
  Q 561.00 402.89 564.76 401.32
  Q 575.71 396.76 586.95 392.94
  Q 660.83 367.80 735.14 349.90
  Q 814.37 330.82 904.15 315.36
  Q 913.83 313.70 923.86 312.21
  Q 1078.02 289.42 1234.16 266.01
  Q 1235.63 265.79 1234.34 265.07
  Q 1211.04 252.02 1186.27 237.74
  Q 1174.61 231.02 1164.00 224.04
  C 1162.08 222.78 1160.43 221.45 1158.96 219.66
  Q 1138.28 194.30 1116.15 168.83
  Q 1110.31 162.12 1103.80 155.20
  Q 1099.58 150.73 1094.59 147.40
  Q 1084.83 140.89 1076.34 136.29
  C 1049.93 121.96 1019.96 112.86 989.48 106.99
  Q 986.04 106.32 982.40 105.98
  Q 982.07 105.95 982.01 105.63
  Q 981.98 105.48 982.07 105.35
  Q 982.22 105.13 982.47 105.06
  Q 1003.26 99.59 1020.86 96.48
  Q 1066.52 88.41 1115.05 88.39
  Q 1127.81 88.39 1143.25 89.61
  Q 1171.52 91.83 1201.26 96.46
  Q 1240.50 102.56 1276.61 110.58
  Q 1284.93 112.43 1298.48 118.05
  Q 1316.71 125.60 1337.03 136.82
  Q 1349.49 143.70 1360.28 152.35
  Q 1363.86 155.23 1366.52 159.76
  C 1369.81 165.36 1364.26 174.35 1360.70 178.64
  C 1352.83 188.17 1341.50 196.78 1331.30 203.13
  Q 1318.75 210.94 1306.03 219.04
  Q 1291.67 228.18 1278.87 240.11
  Q 1267.93 250.31 1261.48 263.76
  Q 1260.60 265.59 1262.63 265.59
  Q 1355.96 265.19 1450.26 265.05
  Q 1460.06 265.03 1470.24 265.17
  Q 1560.08 266.36 1645.70 266.00
  C 1649.45 265.99 1653.12 266.69 1656.76 266.90
  C 1732.70 271.35 1808.57 274.58 1884.41 278.10
  A 1.46 1.46 0.0 0 0 1885.61 277.58
  C 1896.15 265.13 1910.80 255.22 1924.85 246.41
  Q 1926.54 245.36 1928.59 245.24
  Q 1972.62 242.75 1994.30 239.95
  Q 1999.79 239.24 2005.52 238.12
  C 2011.69 236.91 2017.47 237.30 2023.61 237.18
  A 0.79 0.79 0.0 0 1 2024.38 238.20
  C 2022.63 244.23 2016.49 248.84 2011.43 251.70
  Q 1996.63 260.07 1979.27 266.08
  Q 1954.67 274.58 1929.30 281.43
  A 0.14 0.14 0.0 0 0 1929.31 281.70
  C 1936.27 283.05 1943.66 283.30 1950.58 284.03
  Q 1955.75 284.58 1960.67 284.99
  Z"
/>
<path fill="#030303" fill-opacity="0.992" d="
  M 2547.08 283.12
  Q 2553.49 268.11 2562.40 254.61
  Q 2562.78 254.03 2562.15 253.74
  C 2539.91 243.43 2517.94 227.49 2523.18 199.50
  C 2525.21 188.71 2532.75 183.10 2543.45 181.38
  Q 2552.64 179.90 2563.26 184.57
  Q 2575.44 189.93 2580.55 192.82
  Q 2615.78 212.78 2651.33 237.92
  Q 2661.87 245.37 2672.25 254.00
  C 2681.37 261.57 2687.86 270.01 2691.08 281.80
  C 2695.35 297.44 2695.74 312.81 2688.53 327.62
  Q 2688.30 328.09 2687.78 328.13
  Q 2677.06 328.93 2667.97 326.05
  A 2.02 2.01 37.2 0 0 2666.28 326.28
  C 2656.66 332.54 2644.38 336.23 2633.39 337.97
  A 0.52 0.52 0.0 0 0 2633.11 338.85
  Q 2638.93 344.66 2641.91 351.05
  A 0.78 0.78 0.0 0 0 2642.77 351.49
  Q 2659.39 348.36 2677.78 343.17
  C 2690.66 339.53 2703.30 336.32 2716.24 333.69
  C 2726.08 331.70 2736.07 330.33 2745.80 332.86
  Q 2756.07 335.52 2754.76 346.69
  Q 2753.61 356.46 2747.16 362.97
  C 2739.12 371.09 2726.19 375.50 2714.96 377.57
  Q 2692.26 381.74 2669.60 381.05
  C 2662.09 380.82 2654.02 379.40 2646.68 377.56
  Q 2624.06 371.89 2599.93 360.06
  Q 2599.34 359.77 2599.32 359.11
  L 2599.28 357.95
  A 0.99 0.99 0.0 0 0 2598.48 357.02
  Q 2569.24 351.51 2540.07 343.91
  Q 2517.21 337.95 2496.97 330.06
  C 2486.41 325.94 2474.69 320.44 2466.31 313.40
  Q 2458.14 306.53 2447.49 294.51
  Q 2445.53 292.29 2443.11 290.91
  Q 2429.49 283.10 2417.13 275.08
  Q 2410.30 270.64 2405.24 266.11
  C 2400.90 262.24 2405.96 254.99 2409.38 252.57
  Q 2415.83 248.01 2426.57 246.04
  Q 2438.09 243.93 2450.34 243.77
  A 0.45 0.45 0.0 0 0 2450.69 243.04
  C 2443.13 233.42 2434.83 225.63 2424.92 218.39
  C 2413.23 209.87 2401.95 200.55 2392.27 190.38
  Q 2382.67 180.30 2378.46 170.28
  C 2373.86 159.32 2377.84 146.11 2384.77 136.56
  Q 2385.29 135.84 2386.23 135.79
  C 2437.50 132.74 2476.08 172.51 2501.02 212.50
  C 2510.53 227.76 2518.00 244.18 2520.16 260.48
  A 1.10 1.08 -78.2 0 0 2520.66 261.26
  Q 2535.47 270.74 2546.38 283.23
  Q 2546.82 283.73 2547.08 283.12
  Z
  M 2546.37 284.36
  C 2538.74 275.59 2530.07 268.30 2520.43 261.97
  Q 2519.67 261.47 2519.51 260.58
  Q 2515.91 240.33 2506.06 222.60
  C 2492.89 198.92 2476.24 177.29 2455.65 160.62
  C 2435.84 144.57 2412.36 135.12 2386.65 136.38
  A 1.88 1.87 16.3 0 0 2385.20 137.17
  C 2378.05 147.20 2374.35 160.41 2379.84 171.79
  Q 2383.93 180.28 2391.23 188.22
  C 2401.99 199.92 2414.32 209.77 2427.22 219.26
  C 2436.74 226.26 2445.09 234.63 2452.22 243.90
  A 0.25 0.25 0.0 0 1 2452.03 244.30
  C 2439.85 244.59 2406.73 245.64 2404.31 261.96
  C 2404.02 263.89 2405.07 265.25 2406.46 266.37
  C 2417.88 275.63 2431.17 283.32 2443.55 290.44
  Q 2445.86 291.77 2447.44 293.51
  Q 2453.30 299.95 2459.33 306.11
  Q 2469.82 316.83 2483.17 323.23
  Q 2501.25 331.92 2524.16 338.64
  Q 2536.18 342.17 2547.65 345.06
  Q 2574.94 351.96 2598.88 356.33
  A 1.36 1.35 -85.3 0 1 2599.99 357.64
  L 2600.01 358.70
  A 0.91 0.90 13.3 0 0 2600.52 359.51
  Q 2625.95 372.07 2650.04 377.69
  Q 2664.45 381.05 2680.98 380.44
  Q 2705.15 379.53 2721.69 375.33
  C 2737.34 371.35 2752.66 363.04 2754.11 345.80
  Q 2754.53 340.80 2752.62 338.07
  C 2747.07 330.17 2729.90 331.97 2721.87 333.36
  Q 2708.78 335.64 2695.47 339.19
  Q 2678.72 343.65 2662.25 348.10
  Q 2657.08 349.50 2642.36 352.30
  Q 2641.81 352.40 2641.56 351.90
  Q 2638.01 344.57 2631.73 338.39
  A 0.44 0.44 0.0 0 1 2631.95 337.65
  Q 2641.37 335.82 2650.71 332.80
  Q 2659.43 329.99 2666.44 325.30
  A 1.42 1.41 -52.8 0 1 2667.66 325.13
  Q 2676.70 328.15 2687.05 327.50
  Q 2687.71 327.46 2688.01 326.86
  Q 2692.88 317.21 2693.36 307.09
  Q 2694.01 293.31 2689.75 279.71
  Q 2686.25 268.54 2677.96 260.26
  Q 2670.39 252.70 2660.54 245.49
  Q 2626.37 220.46 2589.55 198.83
  C 2581.85 194.30 2573.72 189.90 2565.62 186.40
  Q 2558.24 183.21 2554.76 182.46
  C 2545.81 180.53 2533.98 182.45 2527.94 190.27
  C 2522.67 197.10 2522.17 208.27 2524.13 216.25
  C 2527.59 230.34 2538.65 240.03 2551.34 247.32
  Q 2556.97 250.55 2562.99 253.50
  A 0.80 0.80 0.0 0 1 2563.29 254.67
  C 2556.93 263.97 2552.01 274.01 2547.28 284.23
  A 0.55 0.55 0.0 0 1 2546.37 284.36
  Z"
/>
<path fill="#dcca87" d="
  M 2520.43 261.97
  C 2530.07 268.30 2538.74 275.59 2546.37 284.36
  A 0.55 0.55 0.0 0 0 2547.28 284.23
  C 2552.01 274.01 2556.93 263.97 2563.29 254.67
  A 0.80 0.80 0.0 0 0 2562.99 253.50
  Q 2556.97 250.55 2551.34 247.32
  C 2538.65 240.03 2527.59 230.34 2524.13 216.25
  C 2522.17 208.27 2522.67 197.10 2527.94 190.27
  C 2533.98 182.45 2545.81 180.53 2554.76 182.46
  Q 2558.24 183.21 2565.62 186.40
  C 2573.72 189.90 2581.85 194.30 2589.55 198.83
  Q 2626.37 220.46 2660.54 245.49
  Q 2670.39 252.70 2677.96 260.26
  Q 2686.25 268.54 2689.75 279.71
  Q 2694.01 293.31 2693.36 307.09
  Q 2692.88 317.21 2688.01 326.86
  Q 2687.71 327.46 2687.05 327.50
  Q 2676.70 328.15 2667.66 325.13
  A 1.42 1.41 -52.8 0 0 2666.44 325.30
  Q 2659.43 329.99 2650.71 332.80
  Q 2641.37 335.82 2631.95 337.65
  A 0.44 0.44 0.0 0 0 2631.73 338.39
  Q 2638.01 344.57 2641.56 351.90
  Q 2641.81 352.40 2642.36 352.30
  Q 2657.08 349.50 2662.25 348.10
  Q 2678.72 343.65 2695.47 339.19
  Q 2708.78 335.64 2721.87 333.36
  C 2729.90 331.97 2747.07 330.17 2752.62 338.07
  Q 2754.53 340.80 2754.11 345.80
  C 2752.66 363.04 2737.34 371.35 2721.69 375.33
  Q 2705.15 379.53 2680.98 380.44
  Q 2664.45 381.05 2650.04 377.69
  Q 2625.95 372.07 2600.52 359.51
  A 0.91 0.90 13.3 0 1 2600.01 358.70
  L 2599.99 357.64
  A 1.36 1.35 -85.3 0 0 2598.88 356.33
  Q 2574.94 351.96 2547.65 345.06
  Q 2536.18 342.17 2524.16 338.64
  Q 2501.25 331.92 2483.17 323.23
  Q 2469.82 316.83 2459.33 306.11
  Q 2453.30 299.95 2447.44 293.51
  Q 2445.86 291.77 2443.55 290.44
  C 2431.17 283.32 2417.88 275.63 2406.46 266.37
  C 2405.07 265.25 2404.02 263.89 2404.31 261.96
  C 2406.73 245.64 2439.85 244.59 2452.03 244.30
  A 0.25 0.25 0.0 0 0 2452.22 243.90
  C 2445.09 234.63 2436.74 226.26 2427.22 219.26
  C 2414.32 209.77 2401.99 199.92 2391.23 188.22
  Q 2383.93 180.28 2379.84 171.79
  C 2374.35 160.41 2378.05 147.20 2385.20 137.17
  A 1.88 1.87 16.3 0 1 2386.65 136.38
  C 2412.36 135.12 2435.84 144.57 2455.65 160.62
  C 2476.24 177.29 2492.89 198.92 2506.06 222.60
  Q 2515.91 240.33 2519.51 260.58
  Q 2519.67 261.47 2520.43 261.97
  Z
  M 2572.97 302.09
  L 2590.00 310.59
  A 1.83 1.83 0.0 0 0 2591.99 310.37
  C 2602.27 302.01 2612.68 295.21 2625.29 290.90
  A 0.54 0.54 0.0 0 0 2625.53 290.04
  C 2623.14 287.16 2620.72 283.42 2617.35 281.69
  Q 2610.83 278.35 2604.75 275.11
  A 1.16 1.15 -54.9 0 0 2603.34 275.36
  C 2594.80 285.11 2583.93 293.74 2572.91 301.25
  A 0.49 0.49 0.0 0 0 2572.97 302.09
  Z"
/>
<path fill="#030303" fill-opacity="0.992" d="
  M 508.81 386.19
  C 452.70 404.37 394.26 415.28 336.23 414.68
  C 325.31 414.57 313.36 413.16 302.87 409.44
  Q 301.64 409.01 302.86 408.54
  C 319.60 402.19 338.56 390.20 340.43 370.54
  Q 340.78 366.84 340.88 357.28
  Q 341.01 344.94 344.95 330.20
  C 352.13 303.29 368.88 283.39 392.78 268.92
  C 413.86 256.15 438.38 245.80 462.08 237.36
  Q 510.12 220.23 561.77 207.65
  C 594.90 199.58 628.23 191.86 662.17 187.92
  Q 664.18 187.69 665.94 188.57
  Q 669.46 190.34 672.93 192.06
  Q 674.11 192.64 672.83 192.93
  C 653.99 197.26 639.80 208.71 633.51 226.69
  Q 630.33 235.78 629.55 247.92
  Q 629.36 250.80 630.24 254.44
  Q 631.04 257.75 631.41 260.80
  Q 633.02 273.98 634.99 288.52
  Q 636.31 298.27 635.48 303.45
  C 632.48 322.06 615.45 336.51 600.54 346.05
  Q 585.93 355.41 570.22 362.58
  Q 542.17 375.38 508.81 386.19
  Z
  M 340.38 375.03
  C 336.34 391.63 320.57 402.40 305.09 408.38
  Q 303.37 409.04 305.14 409.55
  Q 316.80 412.87 329.39 413.68
  Q 336.82 414.15 349.90 413.93
  Q 374.62 413.52 400.08 410.29
  C 451.01 403.82 500.26 390.09 548.23 371.31
  C 576.04 360.43 638.95 332.88 635.01 295.28
  Q 633.03 276.39 629.93 255.72
  C 629.68 254.03 628.81 252.91 628.84 251.11
  C 629.34 222.36 642.14 199.86 670.97 192.78
  Q 672.22 192.48 671.08 191.89
  Q 668.50 190.58 665.62 189.20
  Q 663.95 188.41 661.60 188.69
  Q 637.57 191.57 614.06 196.44
  Q 562.15 207.19 513.23 221.46
  Q 471.40 233.66 434.68 248.77
  Q 407.28 260.05 386.45 273.94
  C 358.01 292.89 343.40 321.72 341.57 356.15
  C 341.23 362.44 341.87 368.91 340.38 375.03
  Z"
/>
<path fill="#dcca87" d="
  M 305.09 408.38
  C 320.57 402.40 336.34 391.63 340.38 375.03
  C 341.87 368.91 341.23 362.44 341.57 356.15
  C 343.40 321.72 358.01 292.89 386.45 273.94
  Q 407.28 260.05 434.68 248.77
  Q 471.40 233.66 513.23 221.46
  Q 562.15 207.19 614.06 196.44
  Q 637.57 191.57 661.60 188.69
  Q 663.95 188.41 665.62 189.20
  Q 668.50 190.58 671.08 191.89
  Q 672.22 192.48 670.97 192.78
  C 642.14 199.86 629.34 222.36 628.84 251.11
  C 628.81 252.91 629.68 254.03 629.93 255.72
  Q 633.03 276.39 635.01 295.28
  C 638.95 332.88 576.04 360.43 548.23 371.31
  C 500.26 390.09 451.01 403.82 400.08 410.29
  Q 374.62 413.52 349.90 413.93
  Q 336.82 414.15 329.39 413.68
  Q 316.80 412.87 305.14 409.55
  Q 303.37 409.04 305.09 408.38
  Z"
/>
<path fill="#030303" fill-opacity="0.992" d="
  M 2590.00 310.59
  L 2572.97 302.09
  A 0.49 0.49 0.0 0 1 2572.91 301.25
  C 2583.93 293.74 2594.80 285.11 2603.34 275.36
  A 1.16 1.15 -54.9 0 1 2604.75 275.11
  Q 2610.83 278.35 2617.35 281.69
  C 2620.72 283.42 2623.14 287.16 2625.53 290.04
  A 0.54 0.54 0.0 0 1 2625.29 290.90
  C 2612.68 295.21 2602.27 302.01 2591.99 310.37
  A 1.83 1.83 0.0 0 1 2590.00 310.59
  Z
  M 2591.68 309.61
  C 2601.68 301.35 2612.10 294.66 2624.25 290.41
  A 0.45 0.45 0.0 0 0 2624.43 289.67
  Q 2622.44 287.56 2620.72 285.42
  Q 2619.01 283.30 2616.47 282.05
  Q 2610.39 279.08 2604.83 276.06
  A 0.97 0.97 0.0 0 0 2603.65 276.26
  Q 2591.02 290.06 2574.29 301.13
  A 0.45 0.45 0.0 0 0 2574.34 301.91
  L 2590.30 309.77
  Q 2591.04 310.14 2591.68 309.61
  Z"
/>
<path fill="#030303" fill-opacity="0.992" d="
  M 1745.17 319.12
  C 1780.33 327.11 1813.62 340.41 1845.21 357.61
  C 1885.82 379.71 1923.74 407.41 1958.59 437.91
  A 0.33 0.33 0.0 0 1 1958.46 438.47
  Q 1956.52 438.99 1954.63 439.55
  Q 1953.08 440.02 1951.54 439.78
  Q 1870.35 427.47 1793.06 409.52
  Q 1745.79 398.54 1701.00 384.01
  Q 1678.08 376.57 1655.77 367.43
  C 1628.89 356.41 1601.74 342.80 1579.36 324.83
  Q 1566.56 314.54 1557.18 302.23
  A 0.54 0.54 0.0 0 1 1557.49 301.37
  C 1560.38 300.70 1562.37 299.75 1565.55 300.14
  Q 1576.65 301.51 1589.41 302.64
  Q 1634.47 306.65 1676.65 309.24
  Q 1710.98 311.35 1745.17 319.12
  Z
  M 1827.16 349.21
  Q 1825.17 348.28 1823.30 347.38
  Q 1763.52 318.64 1696.92 311.76
  Q 1677.51 309.76 1663.46 309.07
  Q 1654.13 308.62 1644.00 307.83
  Q 1611.78 305.33 1576.38 302.11
  Q 1571.13 301.63 1565.14 300.76
  C 1562.90 300.44 1560.79 301.18 1558.67 301.73
  A 0.62 0.61 -26.5 0 0 1558.34 302.70
  Q 1569.14 316.24 1582.87 326.77
  C 1604.27 343.17 1628.36 355.40 1654.97 366.41
  Q 1670.60 372.87 1686.30 378.32
  Q 1726.09 392.13 1767.80 402.65
  C 1826.77 417.51 1886.29 428.92 1946.37 438.31
  C 1951.25 439.08 1953.35 439.74 1957.02 438.12
  A 0.38 0.38 0.0 0 0 1957.12 437.48
  Q 1931.63 415.45 1904.35 395.74
  Q 1873.99 373.80 1839.12 355.20
  Q 1833.06 351.97 1827.16 349.21
  Z"
/>
<path fill="#dcca87" d="
  M 1827.16 349.21
  Q 1833.06 351.97 1839.12 355.20
  Q 1873.99 373.80 1904.35 395.74
  Q 1931.63 415.45 1957.12 437.48
  A 0.38 0.38 0.0 0 1 1957.02 438.12
  C 1953.35 439.74 1951.25 439.08 1946.37 438.31
  C 1886.29 428.92 1826.77 417.51 1767.80 402.65
  Q 1726.09 392.13 1686.30 378.32
  Q 1670.60 372.87 1654.97 366.41
  C 1628.36 355.40 1604.27 343.17 1582.87 326.77
  Q 1569.14 316.24 1558.34 302.70
  A 0.62 0.61 -26.5 0 1 1558.67 301.73
  C 1560.79 301.18 1562.90 300.44 1565.14 300.76
  Q 1571.13 301.63 1576.38 302.11
  Q 1611.78 305.33 1644.00 307.83
  Q 1654.13 308.62 1663.46 309.07
  Q 1677.51 309.76 1696.92 311.76
  Q 1763.52 318.64 1823.30 347.38
  Q 1825.17 348.28 1827.16 349.21
  Z"
/>
<path fill="#030303" fill-opacity="0.992" d="
  M 1336.89 346.09
  Q 1383.89 357.27 1437.42 374.21
  Q 1472.86 385.42 1499.58 396.80
  Q 1506.42 399.71 1513.41 403.18
  C 1522.31 407.59 1532.08 413.01 1539.07 420.16
  Q 1542.15 423.31 1543.77 427.14
  Q 1544.21 428.18 1543.20 428.69
  L 1538.49 431.06
  A 2.18 2.17 -48.2 0 1 1536.75 431.16
  C 1502.67 418.69 1468.01 408.62 1432.21 402.42
  Q 1371.61 391.93 1320.43 384.07
  Q 1310.12 382.49 1300.97 380.44
  C 1282.12 376.21 1263.27 371.52 1245.34 364.86
  Q 1236.00 361.39 1228.58 357.09
  C 1224.37 354.64 1219.24 350.83 1217.70 346.11
  C 1211.28 326.48 1268.76 333.75 1277.21 334.90
  Q 1306.75 338.92 1336.89 346.09
  Z
  M 1461.21 383.02
  C 1460.55 382.80 1459.88 382.36 1459.18 382.13
  Q 1417.43 368.05 1368.71 354.88
  Q 1329.92 344.39 1291.46 337.65
  Q 1274.82 334.74 1256.17 333.62
  Q 1246.44 333.04 1237.29 333.58
  C 1232.02 333.89 1224.88 334.88 1220.52 338.27
  C 1217.50 340.62 1217.22 344.74 1219.11 347.82
  C 1222.64 353.57 1230.50 357.80 1236.47 360.42
  Q 1254.00 368.08 1276.33 373.80
  Q 1302.59 380.52 1309.45 381.58
  Q 1392.38 394.46 1440.24 403.25
  Q 1476.31 409.88 1513.78 422.45
  Q 1526.78 426.82 1537.23 430.53
  Q 1537.72 430.71 1538.18 430.48
  L 1542.44 428.40
  Q 1543.61 427.83 1542.99 426.68
  Q 1539.34 419.94 1531.69 414.69
  Q 1522.60 408.43 1513.08 403.86
  Q 1487.80 391.72 1461.21 383.02
  Z"
/>
<path fill="#dcca87" d="
  M 1461.21 383.02
  Q 1487.80 391.72 1513.08 403.86
  Q 1522.60 408.43 1531.69 414.69
  Q 1539.34 419.94 1542.99 426.68
  Q 1543.61 427.83 1542.44 428.40
  L 1538.18 430.48
  Q 1537.72 430.71 1537.23 430.53
  Q 1526.78 426.82 1513.78 422.45
  Q 1476.31 409.88 1440.24 403.25
  Q 1392.38 394.46 1309.45 381.58
  Q 1302.59 380.52 1276.33 373.80
  Q 1254.00 368.08 1236.47 360.42
  C 1230.50 357.80 1222.64 353.57 1219.11 347.82
  C 1217.22 344.74 1217.50 340.62 1220.52 338.27
  C 1224.88 334.88 1232.02 333.89 1237.29 333.58
  Q 1246.44 333.04 1256.17 333.62
  Q 1274.82 334.74 1291.46 337.65
  Q 1329.92 344.39 1368.71 354.88
  Q 1417.43 368.05 1459.18 382.13
  C 1459.88 382.36 1460.55 382.80 1461.21 383.02
  Z"
/>
<path fill="#030303" fill-opacity="0.992" d="
  M 2172.87 484.31
  C 2164.69 543.85 2107.43 565.76 2055.40 574.50
  Q 2048.93 575.58 2035.56 576.94
  Q 2010.73 579.46 1986.15 582.45
  Q 1977.32 583.53 1969.46 585.35
  Q 1961.04 587.29 1953.06 589.34
  Q 1918.19 598.26 1896.74 603.39
  Q 1865.69 610.81 1834.49 612.55
  Q 1825.81 613.04 1814.98 613.11
  Q 1777.75 613.37 1739.92 613.91
  Q 1739.25 613.92 1739.25 613.25
  L 1739.24 610.96
  Q 1739.24 610.27 1739.91 610.14
  Q 1767.37 604.91 1789.70 593.74
  C 1807.29 584.94 1822.45 571.70 1830.44 553.51
  C 1840.22 531.26 1855.10 510.54 1875.92 498.67
  Q 1881.57 495.45 1892.06 492.30
  C 1938.22 478.44 1985.40 465.49 2030.70 452.73
  Q 2041.96 449.55 2057.11 443.77
  C 2069.77 438.94 2081.80 433.29 2092.29 425.38
  C 2101.10 418.73 2109.93 407.79 2105.96 395.99
  C 2102.61 386.02 2093.97 377.06 2086.21 370.21
  Q 2074.50 359.86 2065.99 351.42
  Q 2062.96 348.40 2066.17 345.43
  C 2067.10 344.58 2067.81 344.36 2069.06 344.76
  C 2089.56 351.30 2107.32 363.24 2122.45 378.50
  Q 2141.82 398.05 2158.04 424.37
  C 2165.36 436.24 2172.30 450.42 2173.52 464.08
  Q 2174.36 473.47 2172.87 484.31
  Z
  M 1949.85 476.26
  Q 1919.52 484.68 1891.07 493.36
  Q 1881.60 496.25 1876.32 499.28
  C 1855.32 511.30 1840.93 531.58 1831.27 553.44
  Q 1828.17 560.44 1824.59 565.65
  C 1806.59 591.75 1771.05 604.92 1740.75 610.63
  A 1.18 1.18 0.0 0 0 1739.84 611.44
  Q 1739.68 611.99 1739.79 612.55
  Q 1739.93 613.21 1740.61 613.21
  Q 1783.23 612.77 1826.01 612.19
  Q 1841.24 611.98 1856.76 609.97
  Q 1881.71 606.75 1907.09 600.26
  Q 1943.08 591.06 1972.67 583.96
  Q 1975.24 583.35 1978.50 582.90
  Q 2004.46 579.32 2040.77 575.73
  Q 2072.10 572.63 2102.19 561.64
  C 2112.55 557.85 2122.62 552.89 2131.70 546.92
  Q 2172.33 520.18 2173.21 471.06
  C 2173.43 458.62 2169.31 446.61 2163.63 435.70
  Q 2154.58 418.32 2140.60 400.27
  C 2129.48 385.92 2117.50 373.23 2102.66 362.51
  Q 2087.92 351.87 2070.15 345.79
  C 2067.26 344.80 2065.44 345.99 2065.32 348.91
  Q 2065.30 349.50 2065.70 349.94
  Q 2067.75 352.14 2069.64 353.92
  Q 2080.22 363.87 2091.18 373.97
  Q 2099.54 381.66 2104.48 390.68
  C 2120.73 420.38 2068.97 440.61 2050.00 447.18
  C 2043.12 449.57 2036.49 451.84 2029.43 453.85
  C 2002.96 461.35 1976.44 468.89 1949.85 476.26
  Z"
/>
<path fill="#dcca87" d="
  M 1949.85 476.26
  C 1976.44 468.89 2002.96 461.35 2029.43 453.85
  C 2036.49 451.84 2043.12 449.57 2050.00 447.18
  C 2068.97 440.61 2120.73 420.38 2104.48 390.68
  Q 2099.54 381.66 2091.18 373.97
  Q 2080.22 363.87 2069.64 353.92
  Q 2067.75 352.14 2065.70 349.94
  Q 2065.30 349.50 2065.32 348.91
  C 2065.44 345.99 2067.26 344.80 2070.15 345.79
  Q 2087.92 351.87 2102.66 362.51
  C 2117.50 373.23 2129.48 385.92 2140.60 400.27
  Q 2154.58 418.32 2163.63 435.70
  C 2169.31 446.61 2173.43 458.62 2173.21 471.06
  Q 2172.33 520.18 2131.70 546.92
  C 2122.62 552.89 2112.55 557.85 2102.19 561.64
  Q 2072.10 572.63 2040.77 575.73
  Q 2004.46 579.32 1978.50 582.90
  Q 1975.24 583.35 1972.67 583.96
  Q 1943.08 591.06 1907.09 600.26
  Q 1881.71 606.75 1856.76 609.97
  Q 1841.24 611.98 1826.01 612.19
  Q 1783.23 612.77 1740.61 613.21
  Q 1739.93 613.21 1739.79 612.55
  Q 1739.68 611.99 1739.84 611.44
  A 1.18 1.18 0.0 0 1 1740.75 610.63
  C 1771.05 604.92 1806.59 591.75 1824.59 565.65
  Q 1828.17 560.44 1831.27 553.44
  C 1840.93 531.58 1855.32 511.30 1876.32 499.28
  Q 1881.60 496.25 1891.07 493.36
  Q 1919.52 484.68 1949.85 476.26
  Z"
/>
<path fill="#030303" fill-opacity="0.992" d="
  M 2509.22 481.55
  Q 2508.14 481.82 2509.21 482.14
  Q 2526.11 487.18 2543.95 493.67
  Q 2544.52 493.88 2545.08 493.67
  C 2549.69 491.97 2554.12 490.51 2559.11 489.44
  Q 2572.31 486.61 2585.64 483.77
  A 0.42 0.42 0.0 0 0 2585.89 483.10
  C 2583.86 480.40 2581.16 477.48 2583.83 474.09
  C 2586.37 470.87 2592.66 469.17 2596.84 468.33
  Q 2606.14 466.46 2615.85 465.72
  Q 2631.75 464.50 2648.52 464.22
  Q 2689.39 463.54 2723.26 483.98
  Q 2728.07 486.88 2733.04 492.09
  C 2737.79 497.05 2739.46 502.96 2738.26 509.91
  C 2735.04 528.61 2714.89 532.84 2699.12 534.42
  Q 2685.50 535.79 2674.59 533.29
  Q 2673.85 533.13 2673.54 533.82
  C 2654.82 575.92 2623.36 630.70 2569.49 630.01
  Q 2568.93 630.00 2568.66 629.51
  Q 2565.93 624.44 2563.63 618.49
  Q 2562.13 614.61 2562.97 611.50
  Q 2563.13 610.91 2562.52 610.92
  Q 2538.93 611.19 2525.78 592.45
  C 2521.21 585.93 2519.56 579.68 2521.15 571.83
  Q 2522.64 564.49 2523.72 557.64
  Q 2523.85 556.84 2523.11 557.18
  Q 2501.11 567.37 2477.96 574.32
  Q 2477.39 574.49 2477.28 575.07
  C 2475.39 585.35 2472.90 594.93 2468.16 604.36
  C 2455.02 630.48 2430.46 640.30 2402.30 640.52
  C 2398.43 640.55 2385.14 640.53 2384.61 635.13
  Q 2384.54 634.39 2384.97 633.77
  Q 2394.50 620.01 2403.68 606.99
  Q 2405.81 603.97 2406.94 600.55
  Q 2410.49 589.88 2413.47 579.24
  A 0.53 0.53 0.0 0 0 2413.13 578.60
  C 2406.62 576.41 2401.77 572.36 2400.76 565.29
  C 2400.33 562.23 2404.29 559.57 2406.72 558.12
  Q 2414.09 553.74 2420.88 550.60
  Q 2421.71 550.22 2421.97 549.34
  Q 2426.42 534.51 2433.67 521.33
  C 2438.93 511.77 2446.53 502.47 2457.04 498.78
  A 1.42 1.41 56.2 0 1 2458.44 499.06
  Q 2470.30 509.61 2475.79 525.19
  A 0.45 0.45 0.0 0 0 2476.42 525.44
  Q 2485.70 520.56 2495.17 514.99
  C 2502.71 510.56 2510.06 507.12 2517.74 503.84
  A 0.64 0.63 58.1 0 0 2517.97 502.84
  C 2513.44 497.62 2507.08 489.29 2508.21 482.39
  Q 2508.32 481.72 2507.66 481.88
  C 2474.43 490.02 2440.10 495.16 2406.30 495.37
  C 2388.73 495.49 2371.13 489.28 2355.26 481.07
  Q 2346.82 476.70 2341.14 471.93
  C 2336.55 468.09 2332.96 463.24 2334.67 456.85
  C 2338.84 441.17 2370.22 439.57 2382.77 439.39
  Q 2397.59 439.16 2412.29 438.15
  A 0.42 0.42 0.0 0 0 2412.58 437.47
  C 2405.51 428.97 2400.90 418.16 2399.09 406.86
  Q 2398.98 406.18 2398.30 406.07
  C 2380.21 403.25 2333.75 394.57 2333.30 370.31
  Q 2333.21 364.98 2333.17 360.02
  C 2333.11 351.27 2346.49 348.65 2352.98 347.68
  Q 2383.21 343.16 2412.25 348.03
  Q 2432.11 351.37 2449.01 355.50
  A 2.30 2.24 42.4 0 0 2450.23 355.46
  Q 2477.96 347.11 2507.52 352.26
  Q 2519.37 354.33 2525.02 355.81
  Q 2568.27 367.11 2609.36 388.79
  Q 2619.69 394.24 2629.08 401.67
  Q 2634.24 405.76 2637.66 410.31
  C 2651.91 429.23 2631.25 439.75 2616.01 444.65
  Q 2615.03 444.97 2614.60 445.87
  A 1.42 1.42 0.0 0 1 2613.88 446.56
  Q 2562.32 468.26 2509.22 481.55
  Z
  M 2614.23 444.40
  C 2621.97 442.19 2630.69 438.72 2636.52 433.17
  C 2645.46 424.66 2641.50 414.53 2634.02 407.14
  Q 2626.89 400.10 2616.65 393.90
  Q 2608.09 388.71 2598.47 384.09
  Q 2573.52 372.12 2547.34 363.18
  Q 2529.14 356.98 2510.25 353.46
  C 2490.33 349.76 2470.22 350.14 2451.06 355.95
  Q 2449.65 356.38 2448.12 356.00
  Q 2427.04 350.87 2404.51 347.66
  Q 2394.55 346.25 2384.84 346.19
  C 2375.87 346.13 2334.34 346.51 2333.86 358.97
  Q 2333.60 365.82 2334.19 372.30
  C 2335.32 384.66 2351.36 392.76 2361.48 396.33
  Q 2378.70 402.41 2398.67 405.42
  A 1.28 1.28 0.0 0 1 2399.74 406.48
  Q 2402.64 424.70 2414.03 438.12
  A 0.34 0.33 67.8 0 1 2413.80 438.67
  C 2401.92 439.70 2390.25 439.98 2377.59 440.28
  Q 2373.37 440.39 2368.21 441.00
  C 2357.69 442.24 2334.76 445.32 2334.91 460.55
  C 2335.05 474.69 2371.43 488.17 2382.39 491.31
  C 2394.63 494.82 2405.54 495.09 2418.21 494.46
  Q 2456.92 492.54 2493.26 484.46
  Q 2554.30 470.90 2612.05 446.46
  Q 2613.01 446.05 2613.44 445.08
  Q 2613.67 444.55 2614.23 444.40
  Z
  M 2586.91 484.22
  Q 2571.04 487.60 2556.15 490.92
  Q 2550.88 492.09 2545.87 494.14
  Q 2544.63 494.64 2543.37 494.19
  Q 2526.99 488.31 2509.95 483.16
  Q 2509.29 482.96 2509.12 483.63
  C 2508.17 487.22 2511.19 492.41 2513.35 495.51
  Q 2515.97 499.28 2518.92 502.90
  A 0.90 0.89 58.6 0 1 2518.59 504.29
  C 2511.77 507.29 2504.98 510.24 2498.67 513.88
  Q 2488.20 519.93 2476.80 526.14
  Q 2475.62 526.79 2475.18 525.52
  Q 2470.14 511.03 2458.16 499.70
  A 0.91 0.89 56.4 0 0 2457.23 499.50
  C 2445.11 503.81 2437.15 515.39 2431.57 526.90
  Q 2425.93 538.54 2422.56 549.85
  A 2.05 2.03 -4.5 0 1 2421.47 551.11
  Q 2414.02 554.59 2407.36 558.65
  Q 2404.73 560.25 2402.68 562.22
  Q 2401.09 563.75 2401.78 566.63
  C 2403.35 573.20 2408.08 575.82 2413.92 578.21
  Q 2414.57 578.48 2414.36 579.15
  L 2406.94 603.07
  A 4.90 4.84 71.2 0 1 2406.30 604.39
  L 2385.68 633.94
  A 1.96 1.95 -48.2 0 0 2385.81 636.35
  C 2388.40 639.30 2394.87 639.68 2398.56 639.78
  C 2414.06 640.21 2430.09 637.73 2443.26 630.15
  C 2463.09 618.75 2473.44 597.18 2476.53 574.96
  A 1.47 1.45 -4.5 0 1 2477.56 573.77
  Q 2500.08 567.07 2522.56 556.70
  Q 2523.26 556.38 2524.06 556.21
  Q 2524.72 556.07 2524.61 556.73
  Q 2523.51 563.39 2522.03 570.80
  C 2520.51 578.33 2521.21 584.03 2525.19 590.27
  Q 2537.19 609.09 2559.00 610.18
  Q 2561.25 610.29 2563.50 610.43
  A 0.50 0.50 0.0 0 1 2563.93 611.14
  Q 2562.88 613.46 2563.61 615.93
  Q 2565.51 622.36 2568.94 628.54
  A 1.22 1.21 76.8 0 0 2569.95 629.17
  Q 2574.79 629.42 2579.95 628.75
  C 2604.77 625.51 2624.62 610.08 2639.80 590.69
  C 2653.52 573.15 2664.04 553.67 2673.07 533.18
  Q 2673.47 532.27 2674.43 532.51
  C 2682.82 534.56 2690.95 534.58 2699.42 533.77
  C 2716.05 532.18 2736.49 527.06 2737.91 507.07
  C 2738.32 501.28 2736.24 496.32 2732.23 492.25
  Q 2727.11 487.06 2723.39 484.83
  Q 2701.03 471.48 2675.65 466.93
  Q 2667.07 465.39 2655.76 465.14
  Q 2631.75 464.61 2606.55 467.47
  Q 2596.65 468.59 2588.25 471.84
  Q 2585.24 473.00 2583.77 475.61
  C 2582.38 478.06 2585.62 481.70 2587.14 483.56
  Q 2587.57 484.08 2586.91 484.22
  Z"
/>
<path fill="#dcca87" d="
  M 2613.44 445.08
  Q 2613.01 446.05 2612.05 446.46
  Q 2554.30 470.90 2493.26 484.46
  Q 2456.92 492.54 2418.21 494.46
  C 2405.54 495.09 2394.63 494.82 2382.39 491.31
  C 2371.43 488.17 2335.05 474.69 2334.91 460.55
  C 2334.76 445.32 2357.69 442.24 2368.21 441.00
  Q 2373.37 440.39 2377.59 440.28
  C 2390.25 439.98 2401.92 439.70 2413.80 438.67
  A 0.34 0.33 67.8 0 0 2414.03 438.12
  Q 2402.64 424.70 2399.74 406.48
  A 1.28 1.28 0.0 0 0 2398.67 405.42
  Q 2378.70 402.41 2361.48 396.33
  C 2351.36 392.76 2335.32 384.66 2334.19 372.30
  Q 2333.60 365.82 2333.86 358.97
  C 2334.34 346.51 2375.87 346.13 2384.84 346.19
  Q 2394.55 346.25 2404.51 347.66
  Q 2427.04 350.87 2448.12 356.00
  Q 2449.65 356.38 2451.06 355.95
  C 2470.22 350.14 2490.33 349.76 2510.25 353.46
  Q 2529.14 356.98 2547.34 363.18
  Q 2573.52 372.12 2598.47 384.09
  Q 2608.09 388.71 2616.65 393.90
  Q 2626.89 400.10 2634.02 407.14
  C 2641.50 414.53 2645.46 424.66 2636.52 433.17
  C 2630.69 438.72 2621.97 442.19 2614.23 444.40
  Q 2613.67 444.55 2613.44 445.08
  Z"
/>
<path fill="#030303" fill-opacity="0.992" d="
  M 643.38 501.59
  Q 644.01 502.18 644.80 502.62
  Q 705.52 536.51 772.90 552.93
  Q 842.33 569.85 920.41 569.23
  Q 930.78 569.15 940.49 568.36
  Q 970.23 565.97 999.89 560.89
  Q 1033.70 555.10 1064.76 551.08
  Q 1080.25 549.08 1095.60 548.34
  C 1101.51 548.05 1106.60 548.98 1111.98 550.81
  A 0.69 0.68 33.6 0 1 1112.22 551.97
  Q 1102.81 560.22 1089.81 565.75
  Q 1069.85 574.24 1044.54 578.86
  C 1003.42 586.37 963.01 588.44 919.97 588.94
  Q 809.77 590.23 708.18 555.62
  Q 698.63 552.37 689.30 548.65
  Q 615.04 519.07 530.20 486.65
  Q 520.09 482.79 511.00 480.07
  C 461.10 465.15 409.21 455.94 357.01 451.42
  C 311.80 447.50 266.47 446.47 221.76 449.21
  C 189.98 451.16 157.44 453.69 127.27 453.44
  Q 120.12 453.37 111.20 452.59
  C 108.17 452.33 105.70 450.70 103.03 449.44
  A 0.44 0.44 0.0 0 1 103.01 448.65
  Q 114.45 442.71 128.13 439.57
  Q 151.56 434.19 178.82 431.93
  Q 269.84 424.37 354.94 431.89
  Q 432.02 438.70 506.20 454.08
  Q 538.16 460.71 570.00 470.26
  Q 596.91 478.33 621.96 489.82
  A 1.49 1.49 0.0 0 0 623.37 489.72
  C 670.98 459.10 721.72 431.02 772.71 412.74
  Q 803.90 401.55 833.01 396.78
  Q 857.62 392.75 887.72 394.21
  Q 909.33 395.25 926.31 397.03
  Q 980.07 402.68 1033.51 412.74
  Q 1034.53 412.93 1033.54 413.24
  C 1027.72 415.10 1021.98 417.14 1016.52 419.46
  C 978.88 435.46 944.13 453.41 905.51 473.36
  C 875.63 488.80 841.08 498.48 807.26 503.05
  Q 765.88 508.65 725.49 506.31
  Q 682.46 503.81 643.59 501.09
  Q 642.79 501.04 643.38 501.59
  Z
  M 640.73 500.34
  Q 667.25 501.85 693.76 503.65
  Q 711.32 504.85 727.75 505.60
  C 737.64 506.06 747.08 506.66 757.09 506.30
  Q 771.53 505.78 775.75 505.53
  C 817.00 503.11 859.07 494.39 895.67 477.29
  Q 904.70 473.07 914.60 467.89
  Q 953.75 447.41 993.24 428.99
  Q 1008.26 421.98 1023.68 415.94
  Q 1026.65 414.78 1029.73 413.98
  Q 1032.97 413.14 1029.67 412.57
  Q 1004.15 408.16 980.97 404.68
  C 944.62 399.21 910.87 395.37 875.56 394.53
  Q 841.56 393.73 805.25 403.36
  C 775.31 411.31 746.71 422.73 718.37 436.56
  Q 669.55 460.39 623.72 490.44
  A 2.14 2.12 40.9 0 1 621.63 490.58
  Q 610.56 485.27 597.48 480.39
  Q 578.39 473.26 557.96 467.50
  Q 535.13 461.06 514.01 456.51
  Q 411.81 434.51 311.43 429.69
  Q 291.82 428.75 269.74 428.86
  Q 236.05 429.01 204.25 430.75
  Q 178.28 432.17 154.60 435.36
  Q 137.00 437.74 121.40 442.09
  Q 112.71 444.51 104.56 448.55
  A 0.59 0.59 0.0 0 0 104.59 449.63
  C 106.91 450.59 108.94 451.72 111.55 451.95
  Q 123.87 453.05 135.81 452.82
  Q 155.36 452.46 170.65 451.57
  Q 202.15 449.73 233.58 447.91
  Q 250.05 446.96 269.95 446.96
  C 342.97 446.97 415.81 454.40 486.71 472.65
  Q 512.40 479.27 522.62 483.14
  Q 603.93 513.96 693.06 549.33
  Q 702.21 552.96 711.88 556.18
  Q 802.77 586.40 898.43 588.14
  Q 944.34 588.98 991.88 585.11
  Q 1019.28 582.89 1043.80 578.34
  Q 1054.44 576.37 1065.09 573.55
  C 1081.67 569.16 1098.05 562.92 1111.08 552.16
  A 0.69 0.69 0.0 0 0 1110.82 550.96
  C 1106.04 549.67 1101.83 548.81 1096.70 549.01
  Q 1081.29 549.62 1065.01 551.70
  Q 1034.58 555.61 1002.21 561.18
  Q 973.12 566.19 945.91 568.60
  C 923.90 570.54 902.91 570.22 878.45 568.90
  Q 796.50 564.48 723.65 539.09
  Q 714.01 535.73 704.94 532.13
  Q 671.57 518.88 640.54 500.98
  Q 639.30 500.26 640.73 500.34
  Z"
/>
<path fill="#dcca87" d="
  M 640.73 500.34
  Q 639.30 500.26 640.54 500.98
  Q 671.57 518.88 704.94 532.13
  Q 714.01 535.73 723.65 539.09
  Q 796.50 564.48 878.45 568.90
  C 902.91 570.22 923.90 570.54 945.91 568.60
  Q 973.12 566.19 1002.21 561.18
  Q 1034.58 555.61 1065.01 551.70
  Q 1081.29 549.62 1096.70 549.01
  C 1101.83 548.81 1106.04 549.67 1110.82 550.96
  A 0.69 0.69 0.0 0 1 1111.08 552.16
  C 1098.05 562.92 1081.67 569.16 1065.09 573.55
  Q 1054.44 576.37 1043.80 578.34
  Q 1019.28 582.89 991.88 585.11
  Q 944.34 588.98 898.43 588.14
  Q 802.77 586.40 711.88 556.18
  Q 702.21 552.96 693.06 549.33
  Q 603.93 513.96 522.62 483.14
  Q 512.40 479.27 486.71 472.65
  C 415.81 454.40 342.97 446.97 269.95 446.96
  Q 250.05 446.96 233.58 447.91
  Q 202.15 449.73 170.65 451.57
  Q 155.36 452.46 135.81 452.82
  Q 123.87 453.05 111.55 451.95
  C 108.94 451.72 106.91 450.59 104.59 449.63
  A 0.59 0.59 0.0 0 1 104.56 448.55
  Q 112.71 444.51 121.40 442.09
  Q 137.00 437.74 154.60 435.36
  Q 178.28 432.17 204.25 430.75
  Q 236.05 429.01 269.74 428.86
  Q 291.82 428.75 311.43 429.69
  Q 411.81 434.51 514.01 456.51
  Q 535.13 461.06 557.96 467.50
  Q 578.39 473.26 597.48 480.39
  Q 610.56 485.27 621.63 490.58
  A 2.14 2.12 40.9 0 0 623.72 490.44
  Q 669.55 460.39 718.37 436.56
  C 746.71 422.73 775.31 411.31 805.25 403.36
  Q 841.56 393.73 875.56 394.53
  C 910.87 395.37 944.62 399.21 980.97 404.68
  Q 1004.15 408.16 1029.67 412.57
  Q 1032.97 413.14 1029.73 413.98
  Q 1026.65 414.78 1023.68 415.94
  Q 1008.26 421.98 993.24 428.99
  Q 953.75 447.41 914.60 467.89
  Q 904.70 473.07 895.67 477.29
  C 859.07 494.39 817.00 503.11 775.75 505.53
  Q 771.53 505.78 757.09 506.30
  C 747.08 506.66 737.64 506.06 727.75 505.60
  Q 711.32 504.85 693.76 503.65
  Q 667.25 501.85 640.73 500.34
  Z"
/>
<path fill="#030303" fill-opacity="0.992" d="
  M 2760.85 417.61
  Q 2765.30 436.69 2748.74 442.98
  Q 2742.81 445.23 2735.36 445.99
  Q 2725.03 447.05 2711.93 446.03
  Q 2697.79 444.94 2684.38 444.00
  Q 2683.92 443.97 2683.77 443.54
  L 2680.99 435.75
  Q 2680.72 435.00 2681.08 434.28
  L 2689.18 417.97
  Q 2689.48 417.36 2689.10 416.80
  C 2678.86 401.66 2692.62 396.74 2704.52 395.46
  C 2723.66 393.39 2755.32 393.86 2760.85 417.61
  Z
  M 2761.04 425.29
  C 2760.91 409.68 2751.32 400.33 2736.59 397.29
  Q 2720.22 393.91 2701.88 396.50
  C 2694.56 397.53 2683.87 400.67 2686.70 410.53
  C 2687.33 412.72 2688.77 414.90 2689.88 416.90
  A 1.26 1.26 0.0 0 1 2689.90 418.09
  L 2681.89 434.08
  A 2.37 2.36 48.6 0 0 2681.78 435.91
  L 2684.21 442.83
  A 0.97 0.96 81.1 0 0 2685.09 443.48
  Q 2694.52 443.81 2705.20 444.88
  C 2713.77 445.74 2722.09 445.90 2730.50 445.66
  C 2743.09 445.30 2761.19 441.66 2761.04 425.29
  Z"
/>
<path fill="#dcca87" d="
  M 2736.59 397.29
  C 2751.32 400.33 2760.91 409.68 2761.04 425.29
  C 2761.19 441.66 2743.09 445.30 2730.50 445.66
  C 2722.09 445.90 2713.77 445.74 2705.20 444.88
  Q 2694.52 443.81 2685.09 443.48
  A 0.97 0.96 81.1 0 1 2684.21 442.83
  L 2681.78 435.91
  A 2.37 2.36 48.6 0 1 2681.89 434.08
  L 2689.90 418.09
  A 1.26 1.26 0.0 0 0 2689.88 416.90
  C 2688.77 414.90 2687.33 412.72 2686.70 410.53
  C 2683.87 400.67 2694.56 397.53 2701.88 396.50
  Q 2720.22 393.91 2736.59 397.29
  Z"
/>
<path fill="#030303" fill-opacity="0.992" d="
  M 1274.71 405.42
  C 1352.12 408.52 1430.11 423.93 1498.84 460.09
  Q 1499.32 460.34 1499.46 460.87
  Q 1500.43 464.72 1496.39 465.18
  Q 1494.71 465.37 1492.34 465.22
  Q 1391.92 458.85 1312.11 453.55
  C 1281.48 451.51 1250.84 448.16 1220.88 444.05
  Q 1203.61 441.68 1185.97 437.99
  Q 1176.44 436.00 1167.47 433.14
  C 1162.19 431.45 1154.66 428.68 1151.15 424.25
  C 1144.19 415.47 1161.46 410.75 1166.50 409.69
  Q 1177.52 407.36 1188.36 406.52
  C 1216.61 404.34 1245.67 404.27 1274.71 405.42
  Z
  M 1461.77 443.77
  Q 1444.18 436.34 1424.17 430.30
  Q 1385.51 418.62 1346.81 412.93
  Q 1273.89 402.22 1196.65 406.53
  Q 1186.45 407.10 1175.47 408.76
  Q 1167.84 409.91 1160.80 412.00
  C 1156.55 413.27 1146.12 418.02 1151.78 424.15
  C 1154.99 427.63 1160.33 429.93 1164.71 431.42
  Q 1177.04 435.64 1190.98 438.33
  Q 1217.47 443.43 1247.51 446.84
  Q 1282.32 450.78 1303.00 452.20
  Q 1361.11 456.19 1494.83 464.60
  C 1496.15 464.69 1497.33 464.50 1498.37 463.64
  A 1.91 1.91 0.0 0 0 1498.04 460.48
  Q 1481.75 451.95 1462.70 443.99
  Q 1462.44 443.88 1462.17 443.86
  Q 1461.96 443.85 1461.77 443.77
  Z"
/>
<path fill="#dcca87" d="
  M 1462.17 443.86
  Q 1462.44 443.88 1462.70 443.99
  Q 1481.75 451.95 1498.04 460.48
  A 1.91 1.91 0.0 0 1 1498.37 463.64
  C 1497.33 464.50 1496.15 464.69 1494.83 464.60
  Q 1361.11 456.19 1303.00 452.20
  Q 1282.32 450.78 1247.51 446.84
  Q 1217.47 443.43 1190.98 438.33
  Q 1177.04 435.64 1164.71 431.42
  C 1160.33 429.93 1154.99 427.63 1151.78 424.15
  C 1146.12 418.02 1156.55 413.27 1160.80 412.00
  Q 1167.84 409.91 1175.47 408.76
  Q 1186.45 407.10 1196.65 406.53
  Q 1273.89 402.22 1346.81 412.93
  Q 1385.51 418.62 1424.17 430.30
  Q 1444.18 436.34 1461.77 443.77
  Q 1461.96 443.85 1462.17 443.86
  Z"
/>
<path fill="#030303" fill-opacity="0.992" d="
  M 1746.92 466.26
  C 1748.19 470.76 1745.46 477.24 1742.89 481.11
  Q 1736.91 490.10 1725.44 498.98
  Q 1709.08 511.63 1687.85 522.88
  C 1666.87 533.98 1644.44 541.92 1621.04 543.24
  Q 1610.49 543.84 1601.49 541.82
  C 1582.85 537.63 1568.85 525.60 1556.23 510.77
  C 1547.59 500.60 1539.19 487.04 1541.10 473.45
  C 1544.37 450.11 1573.44 442.56 1593.20 439.77
  Q 1633.63 434.05 1673.02 439.90
  Q 1699.06 443.76 1719.28 449.36
  C 1727.52 451.64 1744.27 456.87 1746.92 466.26
  Z
  M 1690.17 443.60
  A 0.05 0.03 -13.3 0 0 1690.14 443.59
  Q 1666.99 438.95 1642.50 437.69
  C 1631.66 437.14 1619.73 437.92 1608.64 438.68
  Q 1597.93 439.41 1585.57 441.83
  C 1565.27 445.80 1538.85 455.36 1541.82 481.19
  C 1542.69 488.78 1546.60 496.64 1550.98 502.82
  Q 1559.85 515.34 1571.90 525.78
  Q 1593.98 544.92 1623.23 542.48
  C 1645.18 540.66 1666.30 533.45 1686.52 522.80
  Q 1706.08 512.51 1721.44 501.15
  C 1731.16 493.96 1744.99 482.48 1746.49 469.76
  C 1747.41 461.98 1738.25 457.39 1732.46 454.75
  Q 1728.09 452.77 1724.29 451.63
  Q 1705.73 446.07 1690.17 443.60
  Z"
/>
<path fill="#dcca87" d="
  M 1690.17 443.60
  Q 1705.73 446.07 1724.29 451.63
  Q 1728.09 452.77 1732.46 454.75
  C 1738.25 457.39 1747.41 461.98 1746.49 469.76
  C 1744.99 482.48 1731.16 493.96 1721.44 501.15
  Q 1706.08 512.51 1686.52 522.80
  C 1666.30 533.45 1645.18 540.66 1623.23 542.48
  Q 1593.98 544.92 1571.90 525.78
  Q 1559.85 515.34 1550.98 502.82
  C 1546.60 496.64 1542.69 488.78 1541.82 481.19
  C 1538.85 455.36 1565.27 445.80 1585.57 441.83
  Q 1597.93 439.41 1608.64 438.68
  C 1619.73 437.92 1631.66 437.14 1642.50 437.69
  Q 1666.99 438.95 1690.14 443.59
  A 0.05 0.03 -13.3 0 1 1690.17 443.60
  Z"
/>
<path fill="#dcca87" d="
  M 2586.91 484.22
  Q 2587.57 484.08 2587.14 483.56
  C 2585.62 481.70 2582.38 478.06 2583.77 475.61
  Q 2585.24 473.00 2588.25 471.84
  Q 2596.65 468.59 2606.55 467.47
  Q 2631.75 464.61 2655.76 465.14
  Q 2667.07 465.39 2675.65 466.93
  Q 2701.03 471.48 2723.39 484.83
  Q 2727.11 487.06 2732.23 492.25
  C 2736.24 496.32 2738.32 501.28 2737.91 507.07
  C 2736.49 527.06 2716.05 532.18 2699.42 533.77
  C 2690.95 534.58 2682.82 534.56 2674.43 532.51
  Q 2673.47 532.27 2673.07 533.18
  C 2664.04 553.67 2653.52 573.15 2639.80 590.69
  C 2624.62 610.08 2604.77 625.51 2579.95 628.75
  Q 2574.79 629.42 2569.95 629.17
  A 1.22 1.21 76.8 0 1 2568.94 628.54
  Q 2565.51 622.36 2563.61 615.93
  Q 2562.88 613.46 2563.93 611.14
  A 0.50 0.50 0.0 0 0 2563.50 610.43
  Q 2561.25 610.29 2559.00 610.18
  Q 2537.19 609.09 2525.19 590.27
  C 2521.21 584.03 2520.51 578.33 2522.03 570.80
  Q 2523.51 563.39 2524.61 556.73
  Q 2524.72 556.07 2524.06 556.21
  Q 2523.26 556.38 2522.56 556.70
  Q 2500.08 567.07 2477.56 573.77
  A 1.47 1.45 -4.5 0 0 2476.53 574.96
  C 2473.44 597.18 2463.09 618.75 2443.26 630.15
  C 2430.09 637.73 2414.06 640.21 2398.56 639.78
  C 2394.87 639.68 2388.40 639.30 2385.81 636.35
  A 1.96 1.95 -48.2 0 1 2385.68 633.94
  L 2406.30 604.39
  A 4.90 4.84 71.2 0 0 2406.94 603.07
  L 2414.36 579.15
  Q 2414.57 578.48 2413.92 578.21
  C 2408.08 575.82 2403.35 573.20 2401.78 566.63
  Q 2401.09 563.75 2402.68 562.22
  Q 2404.73 560.25 2407.36 558.65
  Q 2414.02 554.59 2421.47 551.11
  A 2.05 2.03 -4.5 0 0 2422.56 549.85
  Q 2425.93 538.54 2431.57 526.90
  C 2437.15 515.39 2445.11 503.81 2457.23 499.50
  A 0.91 0.89 56.4 0 1 2458.16 499.70
  Q 2470.14 511.03 2475.18 525.52
  Q 2475.62 526.79 2476.80 526.14
  Q 2488.20 519.93 2498.67 513.88
  C 2504.98 510.24 2511.77 507.29 2518.59 504.29
  A 0.90 0.89 58.6 0 0 2518.92 502.90
  Q 2515.97 499.28 2513.35 495.51
  C 2511.19 492.41 2508.17 487.22 2509.12 483.63
  Q 2509.29 482.96 2509.95 483.16
  Q 2526.99 488.31 2543.37 494.19
  Q 2544.63 494.64 2545.87 494.14
  Q 2550.88 492.09 2556.15 490.92
  Q 2571.04 487.60 2586.91 484.22
  Z
  M 2615.82 531.77
  A 1.30 1.29 -9.1 0 1 2616.33 531.07
  L 2635.69 517.39
  A 0.49 0.49 0.0 0 0 2635.64 516.56
  Q 2625.21 511.03 2615.96 504.89
  A 1.28 1.27 45.2 0 0 2614.54 504.88
  L 2595.99 517.06
  Q 2594.36 518.13 2596.04 519.13
  Q 2605.95 525.01 2614.65 532.65
  Q 2615.06 533.01 2615.40 532.59
  Q 2615.69 532.23 2615.82 531.77
  Z"
/>
<path fill="#030303" fill-opacity="0.992" d="
  M 386.62 476.09
  Q 426.56 486.15 464.76 498.91
  C 496.72 509.59 529.20 522.68 557.52 540.28
  C 582.01 555.50 608.76 578.98 606.08 610.68
  C 602.96 647.54 566.58 663.42 535.41 670.47
  Q 534.71 670.63 534.29 670.06
  Q 514.83 643.92 493.95 617.29
  Q 492.37 615.27 489.93 613.86
  Q 442.88 586.58 400.24 561.25
  C 381.43 550.07 360.69 532.41 357.31 509.48
  Q 356.52 504.15 357.47 497.60
  Q 358.68 489.28 359.49 480.43
  Q 359.52 480.04 359.34 479.69
  L 356.70 474.70
  A 0.58 0.58 0.0 0 1 357.03 473.88
  L 365.38 471.05
  Q 365.85 470.89 366.34 471.01
  Q 377.02 473.67 386.62 476.09
  Z
  M 412.15 483.63
  Q 411.97 483.51 411.76 483.45
  Q 387.96 476.99 366.73 471.99
  Q 365.48 471.69 364.31 472.16
  Q 361.60 473.26 358.63 474.05
  A 1.13 1.13 0.0 0 0 357.97 475.76
  C 358.96 477.26 360.41 479.35 360.21 481.16
  Q 359.17 490.94 358.01 498.99
  Q 357.18 504.66 357.91 509.26
  C 361.92 534.55 384.74 551.37 405.36 563.56
  Q 448.46 589.02 491.70 614.15
  A 7.04 7.02 -4.0 0 1 493.72 615.90
  Q 514.52 642.34 534.41 669.11
  Q 535.02 669.93 536.01 669.69
  C 559.78 663.98 589.01 652.94 600.32 629.29
  C 609.43 610.25 606.49 590.04 594.14 573.25
  C 583.31 558.54 567.46 546.82 551.60 537.54
  Q 530.26 525.07 506.57 515.34
  Q 462.21 497.14 412.74 483.89
  Q 412.42 483.81 412.15 483.63
  Z"
/>
<path fill="#030303" fill-opacity="0.992" d="
  M 1345.25 520.44
  Q 1304.82 526.71 1263.25 530.52
  Q 1225.18 534.01 1188.33 532.48
  Q 1175.24 531.94 1161.01 529.87
  C 1147.78 527.94 1124.20 523.04 1120.80 507.26
  C 1118.37 495.99 1131.52 489.66 1139.94 486.73
  C 1154.93 481.51 1170.45 479.11 1186.72 477.06
  Q 1196.36 475.84 1206.40 475.07
  Q 1286.13 468.96 1363.64 472.55
  Q 1402.57 474.35 1438.34 480.62
  C 1459.29 484.29 1480.24 489.89 1499.85 498.50
  Q 1500.39 498.74 1499.85 498.97
  Q 1499.56 499.09 1499.26 499.13
  Q 1455.16 504.05 1412.00 510.49
  C 1389.74 513.81 1367.48 517.00 1345.25 520.44
  Z
  M 1445.58 482.82
  Q 1442.63 482.29 1438.41 481.48
  Q 1418.72 477.68 1393.87 475.45
  Q 1368.53 473.17 1347.41 472.53
  Q 1291.87 470.85 1235.93 473.75
  Q 1215.69 474.80 1194.41 476.89
  Q 1170.36 479.25 1150.22 484.34
  C 1140.75 486.73 1118.41 493.27 1121.45 507.23
  C 1123.24 515.40 1130.86 520.58 1138.44 523.44
  C 1151.72 528.44 1166.41 530.44 1180.83 531.38
  Q 1212.88 533.48 1246.45 531.10
  Q 1273.61 529.17 1296.50 526.36
  Q 1330.68 522.17 1372.37 515.62
  Q 1381.51 514.19 1392.15 512.66
  Q 1414.48 509.44 1438.02 506.14
  Q 1463.04 502.63 1485.26 499.97
  Q 1491.38 499.24 1496.68 498.91
  Q 1498.99 498.77 1496.85 497.90
  Q 1471.04 487.41 1445.58 482.82
  Z"
/>
<path fill="#dcca87" d="
  M 412.74 483.89
  Q 462.21 497.14 506.57 515.34
  Q 530.26 525.07 551.60 537.54
  C 567.46 546.82 583.31 558.54 594.14 573.25
  C 606.49 590.04 609.43 610.25 600.32 629.29
  C 589.01 652.94 559.78 663.98 536.01 669.69
  Q 535.02 669.93 534.41 669.11
  Q 514.52 642.34 493.72 615.90
  A 7.04 7.02 -4.0 0 0 491.70 614.15
  Q 448.46 589.02 405.36 563.56
  C 384.74 551.37 361.92 534.55 357.91 509.26
  Q 357.18 504.66 358.01 498.99
  Q 359.17 490.94 360.21 481.16
  C 360.41 479.35 358.96 477.26 357.97 475.76
  A 1.13 1.13 0.0 0 1 358.63 474.05
  Q 361.60 473.26 364.31 472.16
  Q 365.48 471.69 366.73 471.99
  Q 387.96 476.99 411.76 483.45
  Q 411.97 483.51 412.15 483.63
  Q 412.42 483.81 412.74 483.89
  Z"
/>
<path fill="#dcca87" d="
  M 1445.58 482.82
  Q 1471.04 487.41 1496.85 497.90
  Q 1498.99 498.77 1496.68 498.91
  Q 1491.38 499.24 1485.26 499.97
  Q 1463.04 502.63 1438.02 506.14
  Q 1414.48 509.44 1392.15 512.66
  Q 1381.51 514.19 1372.37 515.62
  Q 1330.68 522.17 1296.50 526.36
  Q 1273.61 529.17 1246.45 531.10
  Q 1212.88 533.48 1180.83 531.38
  C 1166.41 530.44 1151.72 528.44 1138.44 523.44
  C 1130.86 520.58 1123.24 515.40 1121.45 507.23
  C 1118.41 493.27 1140.75 486.73 1150.22 484.34
  Q 1170.36 479.25 1194.41 476.89
  Q 1215.69 474.80 1235.93 473.75
  Q 1291.87 470.85 1347.41 472.53
  Q 1368.53 473.17 1393.87 475.45
  Q 1418.72 477.68 1438.41 481.48
  Q 1442.63 482.29 1445.58 482.82
  Z"
/>
<path fill="#030303" fill-opacity="0.992" d="
  M 2615.82 531.77
  Q 2615.69 532.23 2615.40 532.59
  Q 2615.06 533.01 2614.65 532.65
  Q 2605.95 525.01 2596.04 519.13
  Q 2594.36 518.13 2595.99 517.06
  L 2614.54 504.88
  A 1.28 1.27 45.2 0 1 2615.96 504.89
  Q 2625.21 511.03 2635.64 516.56
  A 0.49 0.49 0.0 0 1 2635.69 517.39
  L 2616.33 531.07
  A 1.30 1.29 -9.1 0 0 2615.82 531.77
  Z
  M 2614.99 531.29
  C 2621.03 526.58 2628.02 521.95 2634.57 517.29
  A 0.31 0.30 40.8 0 0 2634.53 516.77
  Q 2624.64 511.62 2615.81 505.71
  A 1.06 1.05 44.6 0 0 2614.64 505.71
  L 2596.53 517.62
  A 0.50 0.50 0.0 0 0 2596.54 518.47
  Q 2606.19 524.23 2614.25 531.27
  Q 2614.61 531.58 2614.99 531.29
  Z"
/>
<path fill="#030303" fill-opacity="0.992" d="
  M 1234.72 613.89
  Q 1216.97 616.77 1200.44 611.79
  C 1192.94 609.52 1186.20 603.19 1187.42 594.85
  C 1188.23 589.36 1196.55 584.02 1201.24 581.41
  Q 1212.05 575.38 1224.38 570.58
  Q 1261.90 555.99 1299.84 546.21
  C 1310.12 543.56 1320.94 541.18 1331.75 539.46
  Q 1372.06 533.04 1413.74 530.62
  Q 1460.94 527.88 1505.55 527.81
  Q 1506.13 527.81 1506.54 528.21
  L 1509.03 530.62
  A 0.98 0.98 0.0 0 1 1509.33 531.45
  C 1508.22 541.57 1495.53 548.30 1486.62 552.16
  C 1466.42 560.91 1443.62 566.54 1422.01 571.22
  Q 1369.91 582.51 1317.86 593.34
  Q 1308.29 595.34 1299.18 597.91
  Q 1272.28 605.50 1244.38 611.94
  Q 1238.88 613.21 1234.72 613.89
  Z
  M 1440.36 566.03
  C 1441.06 565.83 1441.76 565.91 1442.48 565.73
  Q 1449.39 563.92 1457.16 561.75
  Q 1471.31 557.80 1484.11 552.48
  C 1492.77 548.89 1507.06 542.05 1508.61 532.04
  Q 1508.70 531.43 1508.31 530.95
  C 1507.35 529.80 1506.23 528.45 1504.61 528.46
  Q 1469.57 528.66 1428.71 530.49
  Q 1382.77 532.54 1338.88 539.03
  C 1323.61 541.29 1309.21 544.39 1294.35 548.40
  Q 1268.52 555.37 1240.24 565.35
  Q 1227.41 569.87 1215.08 575.27
  Q 1201.45 581.25 1192.92 588.01
  C 1188.30 591.67 1186.63 596.07 1188.93 601.49
  C 1191.13 606.68 1196.21 609.93 1201.40 611.39
  Q 1212.21 614.44 1224.09 614.29
  Q 1231.61 614.20 1243.26 611.52
  Q 1270.30 605.32 1298.22 597.52
  Q 1308.00 594.79 1317.78 592.73
  Q 1355.04 584.90 1422.99 570.25
  Q 1433.92 567.89 1440.36 566.03
  Z"
/>
<path fill="#dcca87" d="
  M 1440.36 566.03
  Q 1433.92 567.89 1422.99 570.25
  Q 1355.04 584.90 1317.78 592.73
  Q 1308.00 594.79 1298.22 597.52
  Q 1270.30 605.32 1243.26 611.52
  Q 1231.61 614.20 1224.09 614.29
  Q 1212.21 614.44 1201.40 611.39
  C 1196.21 609.93 1191.13 606.68 1188.93 601.49
  C 1186.63 596.07 1188.30 591.67 1192.92 588.01
  Q 1201.45 581.25 1215.08 575.27
  Q 1227.41 569.87 1240.24 565.35
  Q 1268.52 555.37 1294.35 548.40
  C 1309.21 544.39 1323.61 541.29 1338.88 539.03
  Q 1382.77 532.54 1428.71 530.49
  Q 1469.57 528.66 1504.61 528.46
  C 1506.23 528.45 1507.35 529.80 1508.31 530.95
  Q 1508.70 531.43 1508.61 532.04
  C 1507.06 542.05 1492.77 548.89 1484.11 552.48
  Q 1471.31 557.80 1457.16 561.75
  Q 1449.39 563.92 1442.48 565.73
  C 1441.76 565.91 1441.06 565.83 1440.36 566.03
  Z"
/>
<path fill="#030303" fill-opacity="0.992" d="
  M 1467.53 698.06
  Q 1451.96 700.37 1434.54 700.72
  C 1428.21 700.84 1419.87 700.73 1415.06 697.94
  C 1403.93 691.47 1427.16 675.80 1431.59 672.82
  C 1449.61 660.67 1469.76 649.45 1488.71 639.73
  Q 1512.94 627.30 1537.04 615.23
  Q 1539.31 614.10 1541.35 612.08
  Q 1564.75 588.85 1586.47 565.24
  A 0.43 0.43 0.0 0 1 1587.05 565.20
  L 1595.63 572.10
  Q 1596.16 572.53 1596.16 573.22
  Q 1596.02 602.66 1579.43 628.26
  C 1572.54 638.89 1564.71 647.40 1555.83 656.21
  C 1532.00 679.82 1500.93 693.11 1467.53 698.06
  Z
  M 1534.69 617.39
  Q 1534.61 617.41 1534.53 617.45
  Q 1519.80 624.85 1503.85 632.81
  Q 1474.43 647.50 1449.15 662.41
  Q 1437.37 669.36 1426.16 677.61
  C 1421.74 680.86 1415.32 685.88 1413.22 690.99
  C 1409.19 700.82 1430.64 700.05 1435.15 699.99
  C 1477.90 699.46 1520.49 688.29 1552.27 658.57
  C 1566.05 645.69 1578.34 631.47 1586.26 614.53
  Q 1595.39 594.98 1595.44 573.59
  Q 1595.44 572.78 1594.81 572.27
  L 1587.45 566.33
  A 0.82 0.81 40.8 0 0 1586.33 566.41
  Q 1565.33 589.22 1541.10 613.45
  C 1539.23 615.32 1537.13 615.90 1535.01 617.26
  Q 1534.86 617.36 1534.69 617.39
  Z"
/>
<path fill="#030303" fill-opacity="0.992" d="
  M 1478.67 614.03
  Q 1451.36 622.08 1420.37 631.41
  Q 1411.57 634.06 1401.37 637.62
  C 1367.64 649.40 1333.79 660.28 1299.14 667.31
  Q 1292.70 668.62 1286.91 668.45
  C 1277.73 668.19 1258.14 667.59 1253.97 657.19
  C 1253.06 654.94 1253.14 652.28 1254.85 650.36
  Q 1257.84 647.00 1261.80 644.69
  C 1276.28 636.25 1292.81 630.40 1308.73 625.10
  Q 1338.20 615.28 1371.96 605.71
  C 1416.21 593.17 1459.93 581.15 1504.51 571.45
  Q 1521.91 567.66 1535.26 565.80
  Q 1537.57 565.48 1541.99 567.07
  Q 1542.49 567.24 1542.48 567.77
  C 1542.19 583.26 1527.03 593.86 1514.42 600.45
  Q 1503.67 606.07 1495.09 609.03
  Q 1491.81 610.16 1478.67 614.03
  Z
  M 1306.94 626.52
  C 1292.05 631.61 1276.32 637.32 1263.40 644.55
  Q 1259.42 646.77 1256.31 649.69
  C 1252.07 653.69 1254.54 659.37 1258.84 662.03
  Q 1262.91 664.55 1267.37 665.55
  Q 1276.56 667.63 1286.56 667.82
  Q 1293.20 667.94 1301.15 666.23
  C 1334.61 659.05 1366.99 649.18 1398.44 637.93
  Q 1407.75 634.59 1417.41 631.65
  Q 1451.48 621.27 1486.00 611.06
  Q 1497.20 607.74 1504.51 604.45
  C 1519.77 597.59 1539.36 587.34 1541.86 569.10
  Q 1542.05 567.69 1540.67 567.32
  C 1538.21 566.67 1536.18 566.20 1533.56 566.63
  Q 1518.84 569.01 1506.25 571.78
  Q 1470.79 579.57 1432.64 589.77
  Q 1390.28 601.08 1348.87 613.19
  Q 1328.69 619.09 1306.94 626.52
  Z"
/>
<path fill="#dcca87" d="
  M 1306.94 626.52
  Q 1328.69 619.09 1348.87 613.19
  Q 1390.28 601.08 1432.64 589.77
  Q 1470.79 579.57 1506.25 571.78
  Q 1518.84 569.01 1533.56 566.63
  C 1536.18 566.20 1538.21 566.67 1540.67 567.32
  Q 1542.05 567.69 1541.86 569.10
  C 1539.36 587.34 1519.77 597.59 1504.51 604.45
  Q 1497.20 607.74 1486.00 611.06
  Q 1451.48 621.27 1417.41 631.65
  Q 1407.75 634.59 1398.44 637.93
  C 1366.99 649.18 1334.61 659.05 1301.15 666.23
  Q 1293.20 667.94 1286.56 667.82
  Q 1276.56 667.63 1267.37 665.55
  Q 1262.91 664.55 1258.84 662.03
  C 1254.54 659.37 1252.07 653.69 1256.31 649.69
  Q 1259.42 646.77 1263.40 644.55
  C 1276.32 637.32 1292.05 631.61 1306.94 626.52
  Z"
/>
<path fill="#dcca87" d="
  M 1535.01 617.26
  C 1537.13 615.90 1539.23 615.32 1541.10 613.45
  Q 1565.33 589.22 1586.33 566.41
  A 0.82 0.81 40.8 0 1 1587.45 566.33
  L 1594.81 572.27
  Q 1595.44 572.78 1595.44 573.59
  Q 1595.39 594.98 1586.26 614.53
  C 1578.34 631.47 1566.05 645.69 1552.27 658.57
  C 1520.49 688.29 1477.90 699.46 1435.15 699.99
  C 1430.64 700.05 1409.19 700.82 1413.22 690.99
  C 1415.32 685.88 1421.74 680.86 1426.16 677.61
  Q 1437.37 669.36 1449.15 662.41
  Q 1474.43 647.50 1503.85 632.81
  Q 1519.80 624.85 1534.53 617.45
  Q 1534.61 617.41 1534.69 617.39
  Q 1534.86 617.36 1535.01 617.26
  Z"
/>
</svg>
